solid ascii
  facet normal 9.709418e-01 -2.393157e-01 -7.134830e-18
    outer loop
      vertex   8.111326e+01 9.164723e+00 2.000000e+00
      vertex   8.099872e+01 8.700000e+00 2.000000e+00
      vertex   8.099872e+01 8.700000e+00 0.000000e+00
    endloop
  endfacet
  facet normal 9.709418e-01 -2.393157e-01 -7.134830e-18
    outer loop
      vertex   8.099872e+01 8.700000e+00 0.000000e+00
      vertex   8.111326e+01 9.164723e+00 0.000000e+00
      vertex   8.111326e+01 9.164723e+00 2.000000e+00
    endloop
  endfacet
  facet normal 7.485107e-01 -6.631227e-01 0.000000e+00
    outer loop
      vertex   8.143065e+01 9.522984e+00 2.000000e+00
      vertex   8.111326e+01 9.164723e+00 2.000000e+00
      vertex   8.111326e+01 9.164723e+00 0.000000e+00
    endloop
  endfacet
  facet normal 7.485107e-01 -6.631227e-01 0.000000e+00
    outer loop
      vertex   8.111326e+01 9.164723e+00 0.000000e+00
      vertex   8.143065e+01 9.522984e+00 0.000000e+00
      vertex   8.143065e+01 9.522984e+00 2.000000e+00
    endloop
  endfacet
  facet normal 3.546049e-01 -9.350162e-01 0.000000e+00
    outer loop
      vertex   8.187818e+01 9.692709e+00 2.000000e+00
      vertex   8.143065e+01 9.522984e+00 2.000000e+00
      vertex   8.143065e+01 9.522984e+00 0.000000e+00
    endloop
  endfacet
  facet normal 3.546049e-01 -9.350162e-01 0.000000e+00
    outer loop
      vertex   8.143065e+01 9.522984e+00 0.000000e+00
      vertex   8.187818e+01 9.692709e+00 0.000000e+00
      vertex   8.187818e+01 9.692709e+00 2.000000e+00
    endloop
  endfacet
  facet normal -1.205367e-01 -9.927089e-01 3.567415e-18
    outer loop
      vertex   8.235332e+01 9.635016e+00 2.000000e+00
      vertex   8.187818e+01 9.692709e+00 2.000000e+00
      vertex   8.187818e+01 9.692709e+00 0.000000e+00
    endloop
  endfacet
  facet normal -1.205367e-01 -9.927089e-01 3.567415e-18
    outer loop
      vertex   8.187818e+01 9.692709e+00 0.000000e+00
      vertex   8.235332e+01 9.635016e+00 0.000000e+00
      vertex   8.235332e+01 9.635016e+00 2.000000e+00
    endloop
  endfacet
  facet normal -5.680647e-01 -8.229839e-01 0.000000e+00
    outer loop
      vertex   8.274723e+01 9.363123e+00 2.000000e+00
      vertex   8.235332e+01 9.635016e+00 2.000000e+00
      vertex   8.235332e+01 9.635016e+00 0.000000e+00
    endloop
  endfacet
  facet normal -5.680647e-01 -8.229839e-01 0.000000e+00
    outer loop
      vertex   8.235332e+01 9.635016e+00 0.000000e+00
      vertex   8.274723e+01 9.363123e+00 0.000000e+00
      vertex   8.274723e+01 9.363123e+00 2.000000e+00
    endloop
  endfacet
  facet normal -8.854560e-01 -4.647232e-01 0.000000e+00
    outer loop
      vertex   8.296966e+01 8.939316e+00 2.000000e+00
      vertex   8.274723e+01 9.363123e+00 2.000000e+00
      vertex   8.274723e+01 9.363123e+00 0.000000e+00
    endloop
  endfacet
  facet normal -8.854560e-01 -4.647232e-01 0.000000e+00
    outer loop
      vertex   8.274723e+01 9.363123e+00 0.000000e+00
      vertex   8.296966e+01 8.939316e+00 0.000000e+00
      vertex   8.296966e+01 8.939316e+00 2.000000e+00
    endloop
  endfacet
  facet normal -9.927089e-01 -1.205367e-01 0.000000e+00
    outer loop
      vertex   8.299872e+01 8.700000e+00 2.000000e+00
      vertex   8.296966e+01 8.939316e+00 2.000000e+00
      vertex   8.296966e+01 8.939316e+00 0.000000e+00
    endloop
  endfacet
  facet normal -9.927089e-01 -1.205367e-01 0.000000e+00
    outer loop
      vertex   8.296966e+01 8.939316e+00 0.000000e+00
      vertex   8.299872e+01 8.700000e+00 0.000000e+00
      vertex   8.299872e+01 8.700000e+00 2.000000e+00
    endloop
  endfacet
  facet normal -9.927089e-01 1.205367e-01 0.000000e+00
    outer loop
      vertex   8.296966e+01 8.460684e+00 2.000000e+00
      vertex   8.299872e+01 8.700000e+00 2.000000e+00
      vertex   8.299872e+01 8.700000e+00 0.000000e+00
    endloop
  endfacet
  facet normal -9.927089e-01 1.205367e-01 0.000000e+00
    outer loop
      vertex   8.299872e+01 8.700000e+00 0.000000e+00
      vertex   8.296966e+01 8.460684e+00 0.000000e+00
      vertex   8.296966e+01 8.460684e+00 2.000000e+00
    endloop
  endfacet
  facet normal -8.854560e-01 4.647232e-01 0.000000e+00
    outer loop
      vertex   8.274723e+01 8.036877e+00 2.000000e+00
      vertex   8.296966e+01 8.460684e+00 2.000000e+00
      vertex   8.296966e+01 8.460684e+00 0.000000e+00
    endloop
  endfacet
  facet normal -8.854560e-01 4.647232e-01 0.000000e+00
    outer loop
      vertex   8.296966e+01 8.460684e+00 0.000000e+00
      vertex   8.274723e+01 8.036877e+00 0.000000e+00
      vertex   8.274723e+01 8.036877e+00 2.000000e+00
    endloop
  endfacet
  facet normal -5.680647e-01 8.229839e-01 1.426966e-17
    outer loop
      vertex   8.235332e+01 7.764984e+00 2.000000e+00
      vertex   8.274723e+01 8.036877e+00 2.000000e+00
      vertex   8.274723e+01 8.036877e+00 0.000000e+00
    endloop
  endfacet
  facet normal -5.680647e-01 8.229839e-01 1.426966e-17
    outer loop
      vertex   8.274723e+01 8.036877e+00 0.000000e+00
      vertex   8.235332e+01 7.764984e+00 0.000000e+00
      vertex   8.235332e+01 7.764984e+00 2.000000e+00
    endloop
  endfacet
  facet normal -1.205367e-01 9.927089e-01 -3.567415e-18
    outer loop
      vertex   8.187818e+01 7.707291e+00 2.000000e+00
      vertex   8.235332e+01 7.764984e+00 2.000000e+00
      vertex   8.235332e+01 7.764984e+00 0.000000e+00
    endloop
  endfacet
  facet normal -1.205367e-01 9.927089e-01 -3.567415e-18
    outer loop
      vertex   8.235332e+01 7.764984e+00 0.000000e+00
      vertex   8.187818e+01 7.707291e+00 0.000000e+00
      vertex   8.187818e+01 7.707291e+00 2.000000e+00
    endloop
  endfacet
  facet normal 3.546049e-01 9.350162e-01 0.000000e+00
    outer loop
      vertex   8.143065e+01 7.877016e+00 2.000000e+00
      vertex   8.187818e+01 7.707291e+00 2.000000e+00
      vertex   8.187818e+01 7.707291e+00 0.000000e+00
    endloop
  endfacet
  facet normal 3.546049e-01 9.350162e-01 0.000000e+00
    outer loop
      vertex   8.187818e+01 7.707291e+00 0.000000e+00
      vertex   8.143065e+01 7.877016e+00 0.000000e+00
      vertex   8.143065e+01 7.877016e+00 2.000000e+00
    endloop
  endfacet
  facet normal 7.485107e-01 6.631227e-01 0.000000e+00
    outer loop
      vertex   8.111326e+01 8.235277e+00 2.000000e+00
      vertex   8.143065e+01 7.877016e+00 2.000000e+00
      vertex   8.143065e+01 7.877016e+00 0.000000e+00
    endloop
  endfacet
  facet normal 7.485107e-01 6.631227e-01 0.000000e+00
    outer loop
      vertex   8.143065e+01 7.877016e+00 0.000000e+00
      vertex   8.111326e+01 8.235277e+00 0.000000e+00
      vertex   8.111326e+01 8.235277e+00 2.000000e+00
    endloop
  endfacet
  facet normal 9.709418e-01 2.393157e-01 0.000000e+00
    outer loop
      vertex   8.099872e+01 8.700000e+00 2.000000e+00
      vertex   8.111326e+01 8.235277e+00 2.000000e+00
      vertex   8.111326e+01 8.235277e+00 0.000000e+00
    endloop
  endfacet
  facet normal 9.709418e-01 2.393157e-01 0.000000e+00
    outer loop
      vertex   8.111326e+01 8.235277e+00 0.000000e+00
      vertex   8.099872e+01 8.700000e+00 0.000000e+00
      vertex   8.099872e+01 8.700000e+00 2.000000e+00
    endloop
  endfacet
  facet normal 0.000000e+00 0.000000e+00 -1.000000e+00
    outer loop
      vertex   8.235332e+01 7.764984e+00 0.000000e+00
      vertex   8.274723e+01 8.036877e+00 0.000000e+00
      vertex   9.200000e+01 2.000000e+00 0.000000e+00
    endloop
  endfacet
  facet normal 0.000000e+00 0.000000e+00 -1.000000e+00
    outer loop
      vertex   9.200000e+01 2.000000e+00 0.000000e+00
      vertex   8.274723e+01 8.036877e+00 0.000000e+00
      vertex   8.296966e+01 8.460684e+00 0.000000e+00
    endloop
  endfacet
  facet normal 0.000000e+00 0.000000e+00 -1.000000e+00
    outer loop
      vertex   8.751822e+00 9.515084e+00 0.000000e+00
      vertex   8.357916e+00 9.786977e+00 0.000000e+00
      vertex   -2.000000e+00 5.122000e+01 0.000000e+00
    endloop
  endfacet
  facet normal 0.000000e+00 0.000000e+00 -1.000000e+00
    outer loop
      vertex   -2.000000e+00 5.122000e+01 0.000000e+00
      vertex   8.357916e+00 9.786977e+00 0.000000e+00
      vertex   7.882774e+00 9.844670e+00 0.000000e+00
    endloop
  endfacet
  facet normal 0.000000e+00 0.000000e+00 -1.000000e+00
    outer loop
      vertex   8.296966e+01 8.939316e+00 0.000000e+00
      vertex   8.274723e+01 9.363123e+00 0.000000e+00
      vertex   9.200000e+01 5.122000e+01 0.000000e+00
    endloop
  endfacet
  facet normal 0.000000e+00 -0.000000e+00 -1.000000e+00
    outer loop
      vertex   9.200000e+01 5.122000e+01 0.000000e+00
      vertex   9.200000e+01 2.000000e+00 0.000000e+00
      vertex   8.296966e+01 8.939316e+00 0.000000e+00
    endloop
  endfacet
  facet normal 0.000000e+00 0.000000e+00 -1.000000e+00
    outer loop
      vertex   8.299872e+01 8.700000e+00 0.000000e+00
      vertex   8.296966e+01 8.939316e+00 0.000000e+00
      vertex   9.200000e+01 2.000000e+00 0.000000e+00
    endloop
  endfacet
  facet normal 0.000000e+00 0.000000e+00 -1.000000e+00
    outer loop
      vertex   9.200000e+01 2.000000e+00 0.000000e+00
      vertex   8.296966e+01 8.460684e+00 0.000000e+00
      vertex   8.299872e+01 8.700000e+00 0.000000e+00
    endloop
  endfacet
  facet normal 0.000000e+00 0.000000e+00 -1.000000e+00
    outer loop
      vertex   8.974253e+00 8.612646e+00 0.000000e+00
      vertex   8.974253e+00 9.091277e+00 0.000000e+00
      vertex   8.143065e+01 9.522984e+00 0.000000e+00
    endloop
  endfacet
  facet normal 0.000000e+00 0.000000e+00 -1.000000e+00
    outer loop
      vertex   -2.000000e+00 5.122000e+01 0.000000e+00
      vertex   7.882774e+00 9.844670e+00 0.000000e+00
      vertex   7.435246e+00 9.674945e+00 0.000000e+00
    endloop
  endfacet
  facet normal -0.000000e+00 0.000000e+00 -1.000000e+00
    outer loop
      vertex   7.435246e+00 9.674945e+00 0.000000e+00
      vertex   7.117855e+00 9.316684e+00 0.000000e+00
      vertex   -2.000000e+00 5.122000e+01 0.000000e+00
    endloop
  endfacet
  facet normal 8.098682e-17 1.762214e-17 -1.000000e+00
    outer loop
      vertex   -2.000000e+00 2.000000e+00 -8.673617e-16
      vertex   -2.000000e+00 5.122000e+01 0.000000e+00
      vertex   7.117855e+00 9.316684e+00 0.000000e+00
    endloop
  endfacet
  facet normal 1.185819e-16 -2.922781e-17 -1.000000e+00
    outer loop
      vertex   7.117855e+00 9.316684e+00 0.000000e+00
      vertex   7.003311e+00 8.851961e+00 0.000000e+00
      vertex   -2.000000e+00 2.000000e+00 -8.673617e-16
    endloop
  endfacet
  facet normal 8.112122e-17 1.999459e-17 -1.000000e+00
    outer loop
      vertex   -2.000000e+00 2.000000e+00 -8.673617e-16
      vertex   7.003311e+00 8.851961e+00 0.000000e+00
      vertex   7.117855e+00 8.387238e+00 0.000000e+00
    endloop
  endfacet
  facet normal 5.869891e-17 5.200270e-17 -1.000000e+00
    outer loop
      vertex   -2.000000e+00 2.000000e+00 -8.673617e-16
      vertex   7.117855e+00 8.387238e+00 0.000000e+00
      vertex   7.435246e+00 8.028977e+00 0.000000e+00
    endloop
  endfacet
  facet normal 3.423929e-17 9.028158e-17 -1.000000e+00
    outer loop
      vertex   7.435246e+00 8.028977e+00 0.000000e+00
      vertex   7.882774e+00 7.859252e+00 0.000000e+00
      vertex   -2.000000e+00 2.000000e+00 -8.673617e-16
    endloop
  endfacet
  facet normal -2.260373e-17 1.861584e-16 -1.000000e+00
    outer loop
      vertex   -2.000000e+00 2.000000e+00 -8.673617e-16
      vertex   7.882774e+00 7.859252e+00 0.000000e+00
      vertex   8.357916e+00 7.916945e+00 0.000000e+00
    endloop
  endfacet
  facet normal 9.227253e-18 1.304367e-16 -1.000000e+00
    outer loop
      vertex   8.357916e+00 7.916945e+00 0.000000e+00
      vertex   9.200000e+01 2.000000e+00 0.000000e+00
      vertex   -2.000000e+00 2.000000e+00 -8.673617e-16
    endloop
  endfacet
  facet normal 0.000000e+00 0.000000e+00 -1.000000e+00
    outer loop
      vertex   8.143065e+01 9.522984e+00 0.000000e+00
      vertex   8.974253e+00 9.091277e+00 0.000000e+00
      vertex   8.751822e+00 9.515084e+00 0.000000e+00
    endloop
  endfacet
  facet normal 0.000000e+00 0.000000e+00 -1.000000e+00
    outer loop
      vertex   -2.000000e+00 5.122000e+01 0.000000e+00
      vertex   8.143065e+01 9.522984e+00 0.000000e+00
      vertex   8.751822e+00 9.515084e+00 0.000000e+00
    endloop
  endfacet
  facet normal -0.000000e+00 0.000000e+00 -1.000000e+00
    outer loop
      vertex   8.187818e+01 9.692709e+00 0.000000e+00
      vertex   8.143065e+01 9.522984e+00 0.000000e+00
      vertex   -2.000000e+00 5.122000e+01 0.000000e+00
    endloop
  endfacet
  facet normal 0.000000e+00 0.000000e+00 -1.000000e+00
    outer loop
      vertex   -2.000000e+00 5.122000e+01 0.000000e+00
      vertex   9.200000e+01 5.122000e+01 0.000000e+00
      vertex   8.187818e+01 9.692709e+00 0.000000e+00
    endloop
  endfacet
  facet normal 0.000000e+00 0.000000e+00 -1.000000e+00
    outer loop
      vertex   9.200000e+01 5.122000e+01 0.000000e+00
      vertex   8.235332e+01 9.635016e+00 0.000000e+00
      vertex   8.187818e+01 9.692709e+00 0.000000e+00
    endloop
  endfacet
  facet normal 0.000000e+00 0.000000e+00 -1.000000e+00
    outer loop
      vertex   9.200000e+01 5.122000e+01 0.000000e+00
      vertex   8.274723e+01 9.363123e+00 0.000000e+00
      vertex   8.235332e+01 9.635016e+00 0.000000e+00
    endloop
  endfacet
  facet normal 0.000000e+00 0.000000e+00 -1.000000e+00
    outer loop
      vertex   8.143065e+01 9.522984e+00 0.000000e+00
      vertex   8.111326e+01 9.164723e+00 0.000000e+00
      vertex   8.974253e+00 8.612646e+00 0.000000e+00
    endloop
  endfacet
  facet normal 0.000000e+00 0.000000e+00 -1.000000e+00
    outer loop
      vertex   8.111326e+01 9.164723e+00 0.000000e+00
      vertex   8.099872e+01 8.700000e+00 0.000000e+00
      vertex   8.974253e+00 8.612646e+00 0.000000e+00
    endloop
  endfacet
  facet normal 0.000000e+00 0.000000e+00 -1.000000e+00
    outer loop
      vertex   8.751822e+00 8.188839e+00 0.000000e+00
      vertex   8.974253e+00 8.612646e+00 0.000000e+00
      vertex   8.099872e+01 8.700000e+00 0.000000e+00
    endloop
  endfacet
  facet normal 0.000000e+00 0.000000e+00 -1.000000e+00
    outer loop
      vertex   8.187818e+01 7.707291e+00 0.000000e+00
      vertex   8.235332e+01 7.764984e+00 0.000000e+00
      vertex   9.200000e+01 2.000000e+00 0.000000e+00
    endloop
  endfacet
  facet normal -0.000000e+00 -0.000000e+00 -1.000000e+00
    outer loop
      vertex   8.187818e+01 7.707291e+00 0.000000e+00
      vertex   9.200000e+01 2.000000e+00 0.000000e+00
      vertex   8.357916e+00 7.916945e+00 0.000000e+00
    endloop
  endfacet
  facet normal 0.000000e+00 0.000000e+00 -1.000000e+00
    outer loop
      vertex   8.357916e+00 7.916945e+00 0.000000e+00
      vertex   8.143065e+01 7.877016e+00 0.000000e+00
      vertex   8.187818e+01 7.707291e+00 0.000000e+00
    endloop
  endfacet
  facet normal 0.000000e+00 0.000000e+00 -1.000000e+00
    outer loop
      vertex   8.357916e+00 7.916945e+00 0.000000e+00
      vertex   8.751822e+00 8.188839e+00 0.000000e+00
      vertex   8.099872e+01 8.700000e+00 0.000000e+00
    endloop
  endfacet
  facet normal 0.000000e+00 -0.000000e+00 -1.000000e+00
    outer loop
      vertex   8.099872e+01 8.700000e+00 0.000000e+00
      vertex   8.111326e+01 8.235277e+00 0.000000e+00
      vertex   8.357916e+00 7.916945e+00 0.000000e+00
    endloop
  endfacet
  facet normal 0.000000e+00 -0.000000e+00 -1.000000e+00
    outer loop
      vertex   8.111326e+01 8.235277e+00 0.000000e+00
      vertex   8.143065e+01 7.877016e+00 0.000000e+00
      vertex   8.357916e+00 7.916945e+00 0.000000e+00
    endloop
  endfacet
  facet normal -8.854560e-01 4.647232e-01 0.000000e+00
    outer loop
      vertex   8.751822e+00 8.188839e+00 2.000000e+00
      vertex   8.974253e+00 8.612646e+00 2.000000e+00
      vertex   8.974253e+00 8.612646e+00 0.000000e+00
    endloop
  endfacet
  facet normal -9.927089e-01 1.205367e-01 0.000000e+00
    outer loop
      vertex   8.974253e+00 8.612646e+00 0.000000e+00
      vertex   8.974253e+00 8.612646e+00 2.000000e+00
      vertex   9.003311e+00 8.851961e+00 2.000000e+00
    endloop
  endfacet
  facet normal -9.998945e-01 0.000000e+00 1.452756e-02
    outer loop
      vertex   8.974253e+00 9.091277e+00 0.000000e+00
      vertex   8.974253e+00 8.612646e+00 0.000000e+00
      vertex   9.003311e+00 8.851961e+00 2.000000e+00
    endloop
  endfacet
  facet normal -9.927089e-01 -1.205367e-01 0.000000e+00
    outer loop
      vertex   9.003311e+00 8.851961e+00 2.000000e+00
      vertex   8.974253e+00 9.091277e+00 2.000000e+00
      vertex   8.974253e+00 9.091277e+00 0.000000e+00
    endloop
  endfacet
  facet normal -8.854560e-01 -4.647232e-01 0.000000e+00
    outer loop
      vertex   8.751822e+00 9.515084e+00 0.000000e+00
      vertex   8.974253e+00 9.091277e+00 0.000000e+00
      vertex   8.974253e+00 9.091277e+00 2.000000e+00
    endloop
  endfacet
  facet normal -8.854560e-01 -4.647232e-01 0.000000e+00
    outer loop
      vertex   8.974253e+00 9.091277e+00 2.000000e+00
      vertex   8.751822e+00 9.515084e+00 2.000000e+00
      vertex   8.751822e+00 9.515084e+00 0.000000e+00
    endloop
  endfacet
  facet normal -5.680647e-01 -8.229839e-01 0.000000e+00
    outer loop
      vertex   8.357916e+00 9.786977e+00 0.000000e+00
      vertex   8.751822e+00 9.515084e+00 0.000000e+00
      vertex   8.751822e+00 9.515084e+00 2.000000e+00
    endloop
  endfacet
  facet normal -5.680647e-01 -8.229839e-01 0.000000e+00
    outer loop
      vertex   8.751822e+00 9.515084e+00 2.000000e+00
      vertex   8.357916e+00 9.786977e+00 2.000000e+00
      vertex   8.357916e+00 9.786977e+00 0.000000e+00
    endloop
  endfacet
  facet normal -1.205367e-01 -9.927089e-01 0.000000e+00
    outer loop
      vertex   7.882774e+00 9.844670e+00 0.000000e+00
      vertex   8.357916e+00 9.786977e+00 0.000000e+00
      vertex   8.357916e+00 9.786977e+00 2.000000e+00
    endloop
  endfacet
  facet normal -1.205367e-01 -9.927089e-01 0.000000e+00
    outer loop
      vertex   8.357916e+00 9.786977e+00 2.000000e+00
      vertex   7.882774e+00 9.844670e+00 2.000000e+00
      vertex   7.882774e+00 9.844670e+00 0.000000e+00
    endloop
  endfacet
  facet normal 3.546049e-01 -9.350162e-01 0.000000e+00
    outer loop
      vertex   7.435246e+00 9.674945e+00 0.000000e+00
      vertex   7.882774e+00 9.844670e+00 0.000000e+00
      vertex   7.882774e+00 9.844670e+00 2.000000e+00
    endloop
  endfacet
  facet normal 3.546049e-01 -9.350162e-01 0.000000e+00
    outer loop
      vertex   7.882774e+00 9.844670e+00 2.000000e+00
      vertex   7.435246e+00 9.674945e+00 2.000000e+00
      vertex   7.435246e+00 9.674945e+00 0.000000e+00
    endloop
  endfacet
  facet normal 7.485107e-01 -6.631227e-01 0.000000e+00
    outer loop
      vertex   7.117855e+00 9.316684e+00 0.000000e+00
      vertex   7.435246e+00 9.674945e+00 0.000000e+00
      vertex   7.435246e+00 9.674945e+00 2.000000e+00
    endloop
  endfacet
  facet normal 7.485107e-01 -6.631227e-01 0.000000e+00
    outer loop
      vertex   7.435246e+00 9.674945e+00 2.000000e+00
      vertex   7.117855e+00 9.316684e+00 2.000000e+00
      vertex   7.117855e+00 9.316684e+00 0.000000e+00
    endloop
  endfacet
  facet normal 9.709418e-01 -2.393157e-01 0.000000e+00
    outer loop
      vertex   7.003311e+00 8.851961e+00 0.000000e+00
      vertex   7.117855e+00 9.316684e+00 0.000000e+00
      vertex   7.117855e+00 9.316684e+00 2.000000e+00
    endloop
  endfacet
  facet normal 9.709418e-01 -2.393157e-01 0.000000e+00
    outer loop
      vertex   7.117855e+00 9.316684e+00 2.000000e+00
      vertex   7.003311e+00 8.851961e+00 2.000000e+00
      vertex   7.003311e+00 8.851961e+00 0.000000e+00
    endloop
  endfacet
  facet normal 9.709418e-01 2.393157e-01 -7.134830e-18
    outer loop
      vertex   7.117855e+00 8.387238e+00 0.000000e+00
      vertex   7.003311e+00 8.851961e+00 0.000000e+00
      vertex   7.003311e+00 8.851961e+00 2.000000e+00
    endloop
  endfacet
  facet normal 9.709418e-01 2.393157e-01 -7.134830e-18
    outer loop
      vertex   7.003311e+00 8.851961e+00 2.000000e+00
      vertex   7.117855e+00 8.387238e+00 2.000000e+00
      vertex   7.117855e+00 8.387238e+00 0.000000e+00
    endloop
  endfacet
  facet normal 7.485107e-01 6.631227e-01 1.426966e-17
    outer loop
      vertex   7.435246e+00 8.028977e+00 0.000000e+00
      vertex   7.117855e+00 8.387238e+00 0.000000e+00
      vertex   7.117855e+00 8.387238e+00 2.000000e+00
    endloop
  endfacet
  facet normal 7.485107e-01 6.631227e-01 1.426966e-17
    outer loop
      vertex   7.117855e+00 8.387238e+00 2.000000e+00
      vertex   7.435246e+00 8.028977e+00 2.000000e+00
      vertex   7.435246e+00 8.028977e+00 0.000000e+00
    endloop
  endfacet
  facet normal 3.546049e-01 9.350162e-01 -1.426966e-17
    outer loop
      vertex   7.882774e+00 7.859252e+00 0.000000e+00
      vertex   7.435246e+00 8.028977e+00 0.000000e+00
      vertex   7.435246e+00 8.028977e+00 2.000000e+00
    endloop
  endfacet
  facet normal 3.546049e-01 9.350162e-01 -1.426966e-17
    outer loop
      vertex   7.435246e+00 8.028977e+00 2.000000e+00
      vertex   7.882774e+00 7.859252e+00 2.000000e+00
      vertex   7.882774e+00 7.859252e+00 0.000000e+00
    endloop
  endfacet
  facet normal -1.205367e-01 9.927089e-01 0.000000e+00
    outer loop
      vertex   8.357916e+00 7.916945e+00 0.000000e+00
      vertex   7.882774e+00 7.859252e+00 0.000000e+00
      vertex   7.882774e+00 7.859252e+00 2.000000e+00
    endloop
  endfacet
  facet normal -1.205367e-01 9.927089e-01 0.000000e+00
    outer loop
      vertex   7.882774e+00 7.859252e+00 2.000000e+00
      vertex   8.357916e+00 7.916945e+00 2.000000e+00
      vertex   8.357916e+00 7.916945e+00 0.000000e+00
    endloop
  endfacet
  facet normal -5.680647e-01 8.229839e-01 0.000000e+00
    outer loop
      vertex   8.751822e+00 8.188839e+00 0.000000e+00
      vertex   8.357916e+00 7.916945e+00 0.000000e+00
      vertex   8.357916e+00 7.916945e+00 2.000000e+00
    endloop
  endfacet
  facet normal -5.680647e-01 8.229839e-01 0.000000e+00
    outer loop
      vertex   8.357916e+00 7.916945e+00 2.000000e+00
      vertex   8.751822e+00 8.188839e+00 2.000000e+00
      vertex   8.751822e+00 8.188839e+00 0.000000e+00
    endloop
  endfacet
  facet normal -8.854560e-01 4.647232e-01 0.000000e+00
    outer loop
      vertex   8.974253e+00 8.612646e+00 0.000000e+00
      vertex   8.751822e+00 8.188839e+00 0.000000e+00
      vertex   8.751822e+00 8.188839e+00 2.000000e+00
    endloop
  endfacet
  facet normal 1.000000e+00 0.000000e+00 -0.000000e+00
    outer loop
      vertex   9.200000e+01 5.122000e+01 0.000000e+00
      vertex   9.200000e+01 5.122000e+01 4.500000e+01
      vertex   9.200000e+01 2.000000e+00 4.500000e+01
    endloop
  endfacet
  facet normal 1.000000e+00 0.000000e+00 0.000000e+00
    outer loop
      vertex   9.200000e+01 2.000000e+00 4.500000e+01
      vertex   9.200000e+01 2.000000e+00 0.000000e+00
      vertex   9.200000e+01 5.122000e+01 0.000000e+00
    endloop
  endfacet
  facet normal -1.000000e+00 3.524428e-17 9.637353e-18
    outer loop
      vertex   -2.000000e+00 2.000000e+00 -8.673617e-16
      vertex   -2.000000e+00 2.000000e+00 4.500000e+01
      vertex   -2.000000e+00 5.122000e+01 4.500000e+01
    endloop
  endfacet
  facet normal -1.000000e+00 4.405535e-17 0.000000e+00
    outer loop
      vertex   -2.000000e+00 5.122000e+01 4.500000e+01
      vertex   -2.000000e+00 5.122000e+01 0.000000e+00
      vertex   -2.000000e+00 2.000000e+00 -8.673617e-16
    endloop
  endfacet
  facet normal 3.469447e-15 -1.000000e+00 -2.390288e-15
    outer loop
      vertex   4.000000e+00 2.000000e+00 2.000000e+00
      vertex   4.000000e+00 2.000000e+00 4.500000e+01
      vertex   -2.000000e+00 2.000000e+00 4.500000e+01
    endloop
  endfacet
  facet normal 1.949476e-14 -1.000000e+00 -1.541976e-16
    outer loop
      vertex   -2.000000e+00 2.000000e+00 4.500000e+01
      vertex   -2.000000e+00 2.000000e+00 -8.673617e-16
      vertex   4.000000e+00 2.000000e+00 2.000000e+00
    endloop
  endfacet
  facet normal -1.322198e-15 -1.000000e+00 6.229667e-14
    outer loop
      vertex   8.600000e+01 2.000000e+00 2.000000e+00
      vertex   4.000000e+00 2.000000e+00 2.000000e+00
      vertex   -2.000000e+00 2.000000e+00 -8.673617e-16
    endloop
  endfacet
  facet normal 7.381802e-17 -1.000000e+00 8.719754e-16
    outer loop
      vertex   -2.000000e+00 2.000000e+00 -8.673617e-16
      vertex   9.200000e+01 2.000000e+00 0.000000e+00
      vertex   8.600000e+01 2.000000e+00 2.000000e+00
    endloop
  endfacet
  facet normal -2.538210e-16 -1.000000e+00 -1.109416e-16
    outer loop
      vertex   8.600000e+01 2.000000e+00 4.500000e+01
      vertex   8.600000e+01 2.000000e+00 2.000000e+00
      vertex   9.200000e+01 2.000000e+00 0.000000e+00
    endloop
  endfacet
  facet normal 1.156482e-15 -1.000000e+00 7.709882e-17
    outer loop
      vertex   9.200000e+01 2.000000e+00 0.000000e+00
      vertex   9.200000e+01 2.000000e+00 4.500000e+01
      vertex   8.600000e+01 2.000000e+00 4.500000e+01
    endloop
  endfacet
  facet normal 1.000000e+00 2.312965e-15 -0.000000e+00
    outer loop
      vertex   4.000000e+00 3.500000e+00 2.000000e+00
      vertex   4.000000e+00 3.500000e+00 4.500000e+01
      vertex   4.000000e+00 2.000000e+00 4.500000e+01
    endloop
  endfacet
  facet normal 1.000000e+00 2.312965e-15 5.528651e-30
    outer loop
      vertex   4.000000e+00 2.000000e+00 4.500000e+01
      vertex   4.000000e+00 2.000000e+00 2.000000e+00
      vertex   4.000000e+00 3.500000e+00 2.000000e+00
    endloop
  endfacet
  facet normal 5.887108e-31 1.454085e-16 1.000000e+00
    outer loop
      vertex   3.469447e-15 3.500000e+00 4.500000e+01
      vertex   0.000000e+00 5.122000e+01 4.500000e+01
      vertex   -2.000000e+00 5.122000e+01 4.500000e+01
    endloop
  endfacet
  facet normal -6.833161e-15 -1.409771e-16 1.000000e+00
    outer loop
      vertex   -2.000000e+00 5.122000e+01 4.500000e+01
      vertex   -2.000000e+00 2.000000e+00 4.500000e+01
      vertex   3.469447e-15 3.500000e+00 4.500000e+01
    endloop
  endfacet
  facet normal 2.537814e-28 -9.251859e-15 1.000000e+00
    outer loop
      vertex   4.000000e+00 3.500000e+00 4.500000e+01
      vertex   3.469447e-15 3.500000e+00 4.500000e+01
      vertex   -2.000000e+00 2.000000e+00 4.500000e+01
    endloop
  endfacet
  facet normal 3.209883e-29 -9.251859e-15 1.000000e+00
    outer loop
      vertex   -2.000000e+00 2.000000e+00 4.500000e+01
      vertex   4.000000e+00 2.000000e+00 4.500000e+01
      vertex   4.000000e+00 3.500000e+00 4.500000e+01
    endloop
  endfacet
  facet normal -2.743031e-14 1.000000e+00 5.647937e-16
    outer loop
      vertex   3.469447e-15 3.500000e+00 2.000000e+00
      vertex   3.469447e-15 3.500000e+00 4.500000e+01
      vertex   4.000000e+00 3.500000e+00 4.500000e+01
    endloop
  endfacet
  facet normal -2.135878e-14 1.000000e+00 0.000000e+00
    outer loop
      vertex   4.000000e+00 3.500000e+00 4.500000e+01
      vertex   4.000000e+00 3.500000e+00 2.000000e+00
      vertex   3.469447e-15 3.500000e+00 2.000000e+00
    endloop
  endfacet
  facet normal -1.000000e+00 0.000000e+00 0.000000e+00
    outer loop
      vertex   8.600000e+01 2.000000e+00 2.000000e+00
      vertex   8.600000e+01 2.000000e+00 4.500000e+01
      vertex   8.600000e+01 3.500000e+00 4.500000e+01
    endloop
  endfacet
  facet normal -1.000000e+00 0.000000e+00 -0.000000e+00
    outer loop
      vertex   8.600000e+01 3.500000e+00 4.500000e+01
      vertex   8.600000e+01 3.500000e+00 2.000000e+00
      vertex   8.600000e+01 2.000000e+00 2.000000e+00
    endloop
  endfacet
  facet normal 0.000000e+00 1.000000e+00 0.000000e+00
    outer loop
      vertex   9.000000e+01 3.500000e+00 2.000000e+00
      vertex   8.600000e+01 3.500000e+00 2.000000e+00
      vertex   8.600000e+01 3.500000e+00 4.500000e+01
    endloop
  endfacet
  facet normal -0.000000e+00 1.000000e+00 0.000000e+00
    outer loop
      vertex   8.600000e+01 3.500000e+00 4.500000e+01
      vertex   9.000000e+01 3.500000e+00 4.500000e+01
      vertex   9.000000e+01 3.500000e+00 2.000000e+00
    endloop
  endfacet
  facet normal -1.000000e+00 0.000000e+00 0.000000e+00
    outer loop
      vertex   9.000000e+01 3.500000e+00 2.000000e+00
      vertex   9.000000e+01 3.500000e+00 4.500000e+01
      vertex   9.000000e+01 6.000000e+00 4.500000e+01
    endloop
  endfacet
  facet normal -1.000000e+00 0.000000e+00 -0.000000e+00
    outer loop
      vertex   9.000000e+01 6.000000e+00 4.500000e+01
      vertex   9.000000e+01 6.000000e+00 2.000000e+00
      vertex   9.000000e+01 3.500000e+00 2.000000e+00
    endloop
  endfacet
  facet normal 1.084202e-15 -1.000000e+00 0.000000e+00
    outer loop
      vertex   8.600000e+01 6.000000e+00 2.000000e+00
      vertex   9.000000e+01 6.000000e+00 2.000000e+00
      vertex   9.000000e+01 6.000000e+00 4.500000e+01
    endloop
  endfacet
  facet normal -4.336809e-16 -1.000000e+00 1.411984e-16
    outer loop
      vertex   9.000000e+01 6.000000e+00 4.500000e+01
      vertex   8.600000e+01 6.000000e+00 4.500000e+01
      vertex   8.600000e+01 6.000000e+00 2.000000e+00
    endloop
  endfacet
  facet normal -1.000000e+00 0.000000e+00 0.000000e+00
    outer loop
      vertex   8.600000e+01 6.000000e+00 2.000000e+00
      vertex   8.600000e+01 6.000000e+00 4.500000e+01
      vertex   8.600000e+01 7.500000e+00 4.500000e+01
    endloop
  endfacet
  facet normal -1.000000e+00 0.000000e+00 -0.000000e+00
    outer loop
      vertex   8.600000e+01 7.500000e+00 4.500000e+01
      vertex   8.600000e+01 7.500000e+00 2.000000e+00
      vertex   8.600000e+01 6.000000e+00 2.000000e+00
    endloop
  endfacet
  facet normal 6.071840e-31 -1.409771e-16 1.000000e+00
    outer loop
      vertex   9.200000e+01 2.000000e+00 4.500000e+01
      vertex   9.200000e+01 5.122000e+01 4.500000e+01
      vertex   9.000000e+01 5.122000e+01 4.500000e+01
    endloop
  endfacet
  facet normal 7.375352e-15 1.587121e-16 1.000000e+00
    outer loop
      vertex   9.000000e+01 5.122000e+01 4.500000e+01
      vertex   9.000000e+01 7.500000e+00 4.500000e+01
      vertex   9.200000e+01 2.000000e+00 4.500000e+01
    endloop
  endfacet
  facet normal 0.000000e+00 -9.251859e-15 1.000000e+00
    outer loop
      vertex   9.000000e+01 3.500000e+00 4.500000e+01
      vertex   8.600000e+01 3.500000e+00 4.500000e+01
      vertex   8.600000e+01 2.000000e+00 4.500000e+01
    endloop
  endfacet
  facet normal 1.069961e-29 -9.251859e-15 1.000000e+00
    outer loop
      vertex   8.600000e+01 2.000000e+00 4.500000e+01
      vertex   9.200000e+01 2.000000e+00 4.500000e+01
      vertex   9.000000e+01 3.500000e+00 4.500000e+01
    endloop
  endfacet
  facet normal 6.938894e-15 0.000000e+00 1.000000e+00
    outer loop
      vertex   9.000000e+01 6.000000e+00 4.500000e+01
      vertex   9.000000e+01 3.500000e+00 4.500000e+01
      vertex   9.200000e+01 2.000000e+00 4.500000e+01
    endloop
  endfacet
  facet normal 6.938894e-15 -1.720539e-30 1.000000e+00
    outer loop
      vertex   9.200000e+01 2.000000e+00 4.500000e+01
      vertex   9.000000e+01 7.500000e+00 4.500000e+01
      vertex   9.000000e+01 6.000000e+00 4.500000e+01
    endloop
  endfacet
  facet normal -0.000000e+00 0.000000e+00 1.000000e+00
    outer loop
      vertex   8.600000e+01 6.000000e+00 4.500000e+01
      vertex   9.000000e+01 6.000000e+00 4.500000e+01
      vertex   9.000000e+01 7.500000e+00 4.500000e+01
    endloop
  endfacet
  facet normal 0.000000e+00 0.000000e+00 1.000000e+00
    outer loop
      vertex   9.000000e+01 7.500000e+00 4.500000e+01
      vertex   8.600000e+01 7.500000e+00 4.500000e+01
      vertex   8.600000e+01 6.000000e+00 4.500000e+01
    endloop
  endfacet
  facet normal 0.000000e+00 1.000000e+00 0.000000e+00
    outer loop
      vertex   8.600000e+01 7.500000e+00 2.000000e+00
      vertex   8.600000e+01 7.500000e+00 4.500000e+01
      vertex   9.000000e+01 7.500000e+00 4.500000e+01
    endloop
  endfacet
  facet normal 0.000000e+00 1.000000e+00 0.000000e+00
    outer loop
      vertex   9.000000e+01 7.500000e+00 4.500000e+01
      vertex   9.000000e+01 7.500000e+00 2.000000e+00
      vertex   8.600000e+01 7.500000e+00 2.000000e+00
    endloop
  endfacet
  facet normal 3.469447e-15 1.000000e+00 0.000000e+00
    outer loop
      vertex   -2.000000e+00 5.122000e+01 4.500000e+01
      vertex   0.000000e+00 5.122000e+01 4.500000e+01
      vertex   0.000000e+00 5.122000e+01 2.850000e+01
    endloop
  endfacet
  facet normal -3.469447e-15 1.000000e+00 0.000000e+00
    outer loop
      vertex   9.000000e+01 5.122000e+01 2.850000e+01
      vertex   9.000000e+01 5.122000e+01 4.500000e+01
      vertex   9.200000e+01 5.122000e+01 4.500000e+01
    endloop
  endfacet
  facet normal -3.469447e-15 1.000000e+00 0.000000e+00
    outer loop
      vertex   9.200000e+01 5.122000e+01 4.500000e+01
      vertex   9.200000e+01 5.122000e+01 0.000000e+00
      vertex   9.000000e+01 5.122000e+01 2.850000e+01
    endloop
  endfacet
  facet normal -0.000000e+00 1.000000e+00 2.434700e-16
    outer loop
      vertex   0.000000e+00 5.122000e+01 2.850000e+01
      vertex   9.000000e+01 5.122000e+01 2.850000e+01
      vertex   9.200000e+01 5.122000e+01 0.000000e+00
    endloop
  endfacet
  facet normal 0.000000e+00 1.000000e+00 2.434700e-16
    outer loop
      vertex   9.200000e+01 5.122000e+01 0.000000e+00
      vertex   -2.000000e+00 5.122000e+01 0.000000e+00
      vertex   0.000000e+00 5.122000e+01 2.850000e+01
    endloop
  endfacet
  facet normal 3.469447e-15 1.000000e+00 0.000000e+00
    outer loop
      vertex   0.000000e+00 5.122000e+01 2.850000e+01
      vertex   -2.000000e+00 5.122000e+01 0.000000e+00
      vertex   -2.000000e+00 5.122000e+01 4.500000e+01
    endloop
  endfacet
  facet normal 1.000000e+00 -1.084202e-15 0.000000e+00
    outer loop
      vertex   -2.168404e-15 4.922000e+01 2.850000e+01
      vertex   0.000000e+00 5.122000e+01 2.850000e+01
      vertex   0.000000e+00 5.122000e+01 4.500000e+01
    endloop
  endfacet
  facet normal 1.000000e+00 7.270425e-17 -1.402311e-16
    outer loop
      vertex   0.000000e+00 5.122000e+01 4.500000e+01
      vertex   3.469447e-15 3.500000e+00 4.500000e+01
      vertex   -2.168404e-15 4.922000e+01 2.850000e+01
    endloop
  endfacet
  facet normal 1.000000e+00 1.528432e-16 8.182658e-17
    outer loop
      vertex   0.000000e+00 4.922000e+01 2.000000e+00
      vertex   -2.168404e-15 4.922000e+01 2.850000e+01
      vertex   3.469447e-15 3.500000e+00 4.500000e+01
    endloop
  endfacet
  facet normal 1.000000e+00 7.588467e-17 4.285918e-32
    outer loop
      vertex   3.469447e-15 3.500000e+00 4.500000e+01
      vertex   3.469447e-15 3.500000e+00 2.000000e+00
      vertex   0.000000e+00 4.922000e+01 2.000000e+00
    endloop
  endfacet
  facet normal -1.000000e+00 0.000000e+00 -0.000000e+00
    outer loop
      vertex   9.000000e+01 4.922000e+01 2.850000e+01
      vertex   9.000000e+01 4.922000e+01 2.000000e+00
      vertex   9.000000e+01 7.500000e+00 2.000000e+00
    endloop
  endfacet
  facet normal -1.000000e+00 0.000000e+00 0.000000e+00
    outer loop
      vertex   9.000000e+01 7.500000e+00 2.000000e+00
      vertex   9.000000e+01 7.500000e+00 4.500000e+01
      vertex   9.000000e+01 4.922000e+01 2.850000e+01
    endloop
  endfacet
  facet normal -1.000000e+00 0.000000e+00 0.000000e+00
    outer loop
      vertex   9.000000e+01 5.122000e+01 2.850000e+01
      vertex   9.000000e+01 4.922000e+01 2.850000e+01
      vertex   9.000000e+01 7.500000e+00 4.500000e+01
    endloop
  endfacet
  facet normal -1.000000e+00 0.000000e+00 0.000000e+00
    outer loop
      vertex   9.000000e+01 7.500000e+00 4.500000e+01
      vertex   9.000000e+01 5.122000e+01 4.500000e+01
      vertex   9.000000e+01 5.122000e+01 2.850000e+01
    endloop
  endfacet
  facet normal -0.000000e+00 -1.000000e+00 0.000000e+00
    outer loop
      vertex   9.000000e+01 4.922000e+01 2.850000e+01
      vertex   -2.168404e-15 4.922000e+01 2.850000e+01
      vertex   0.000000e+00 4.922000e+01 2.000000e+00
    endloop
  endfacet
  facet normal 0.000000e+00 -1.000000e+00 0.000000e+00
    outer loop
      vertex   0.000000e+00 4.922000e+01 2.000000e+00
      vertex   9.000000e+01 4.922000e+01 2.000000e+00
      vertex   9.000000e+01 4.922000e+01 2.850000e+01
    endloop
  endfacet
  facet normal 0.000000e+00 -0.000000e+00 1.000000e+00
    outer loop
      vertex   9.000000e+01 4.922000e+01 2.850000e+01
      vertex   9.000000e+01 5.122000e+01 2.850000e+01
      vertex   0.000000e+00 5.122000e+01 2.850000e+01
    endloop
  endfacet
  facet normal 0.000000e+00 0.000000e+00 1.000000e+00
    outer loop
      vertex   0.000000e+00 5.122000e+01 2.850000e+01
      vertex   -2.168404e-15 4.922000e+01 2.850000e+01
      vertex   9.000000e+01 4.922000e+01 2.850000e+01
    endloop
  endfacet
  facet normal 1.529098e-30 1.156482e-15 1.000000e+00
    outer loop
      vertex   4.000000e+00 2.000000e+00 2.000000e+00
      vertex   8.600000e+01 2.000000e+00 2.000000e+00
      vertex   8.600000e+01 3.500000e+00 2.000000e+00
    endloop
  endfacet
  facet normal 1.142498e-16 -2.079007e-17 1.000000e+00
    outer loop
      vertex   9.000000e+01 7.500000e+00 2.000000e+00
      vertex   9.000000e+01 4.922000e+01 2.000000e+00
      vertex   8.274723e+01 9.363123e+00 2.000000e+00
    endloop
  endfacet
  facet normal 2.939867e-31 2.104079e-16 1.000000e+00
    outer loop
      vertex   2.380138e+01 1.803155e+01 2.000000e+00
      vertex   8.902769e+00 1.803155e+01 2.000000e+00
      vertex   8.357916e+00 9.786977e+00 2.000000e+00
    endloop
  endfacet
  facet normal 4.013886e-16 -2.106650e-16 1.000000e+00
    outer loop
      vertex   8.296966e+01 8.460684e+00 2.000000e+00
      vertex   8.274723e+01 8.036877e+00 2.000000e+00
      vertex   8.600000e+01 6.000000e+00 2.000000e+00
    endloop
  endfacet
  facet normal 5.724520e-16 -0.000000e+00 1.000000e+00
    outer loop
      vertex   8.600000e+01 6.000000e+00 2.000000e+00
      vertex   8.600000e+01 7.500000e+00 2.000000e+00
      vertex   8.296966e+01 8.460684e+00 2.000000e+00
    endloop
  endfacet
  facet normal 5.512332e-16 -6.693182e-17 1.000000e+00
    outer loop
      vertex   8.600000e+01 7.500000e+00 2.000000e+00
      vertex   8.299872e+01 8.700000e+00 2.000000e+00
      vertex   8.296966e+01 8.460684e+00 2.000000e+00
    endloop
  endfacet
  facet normal -2.168404e-16 -1.987935e-15 1.000000e+00
    outer loop
      vertex   8.600000e+01 7.500000e+00 2.000000e+00
      vertex   9.000000e+01 7.500000e+00 2.000000e+00
      vertex   8.299872e+01 8.700000e+00 2.000000e+00
    endloop
  endfacet
  facet normal 1.265192e-16 1.536221e-17 1.000000e+00
    outer loop
      vertex   8.296966e+01 8.939316e+00 2.000000e+00
      vertex   8.299872e+01 8.700000e+00 2.000000e+00
      vertex   9.000000e+01 7.500000e+00 2.000000e+00
    endloop
  endfacet
  facet normal 1.382266e-16 7.254690e-17 1.000000e+00
    outer loop
      vertex   8.274723e+01 9.363123e+00 2.000000e+00
      vertex   8.296966e+01 8.939316e+00 2.000000e+00
      vertex   9.000000e+01 7.500000e+00 2.000000e+00
    endloop
  endfacet
  facet normal -5.622369e-17 -1.482497e-16 1.000000e+00
    outer loop
      vertex   2.380138e+01 1.803155e+01 2.000000e+00
      vertex   8.187818e+01 7.707291e+00 2.000000e+00
      vertex   8.143065e+01 7.877016e+00 2.000000e+00
    endloop
  endfacet
  facet normal -1.042195e-16 -2.568780e-17 1.000000e+00
    outer loop
      vertex   3.469447e-15 3.500000e+00 2.000000e+00
      vertex   7.117855e+00 8.387238e+00 2.000000e+00
      vertex   7.003311e+00 8.851961e+00 2.000000e+00
    endloop
  endfacet
  facet normal 2.212743e-17 -1.161337e-17 1.000000e+00
    outer loop
      vertex   8.600000e+01 6.000000e+00 2.000000e+00
      vertex   8.974253e+00 8.612646e+00 2.000000e+00
      vertex   8.751822e+00 8.188839e+00 2.000000e+00
    endloop
  endfacet
  facet normal -3.566958e-17 -3.160049e-17 1.000000e+00
    outer loop
      vertex   8.143065e+01 7.877016e+00 2.000000e+00
      vertex   8.111326e+01 8.235277e+00 2.000000e+00
      vertex   2.380138e+01 1.803155e+01 2.000000e+00
    endloop
  endfacet
  facet normal -3.159942e-17 -7.788558e-18 1.000000e+00
    outer loop
      vertex   8.111326e+01 8.235277e+00 2.000000e+00
      vertex   8.099872e+01 8.700000e+00 2.000000e+00
      vertex   2.380138e+01 1.803155e+01 2.000000e+00
    endloop
  endfacet
  facet normal -3.032875e-17 3.507466e-32 1.000000e+00
    outer loop
      vertex   2.380138e+01 2.403155e+01 2.000000e+00
      vertex   2.380138e+01 1.803155e+01 2.000000e+00
      vertex   8.099872e+01 8.700000e+00 2.000000e+00
    endloop
  endfacet
  facet normal -2.844918e-17 7.012093e-18 1.000000e+00
    outer loop
      vertex   8.099872e+01 8.700000e+00 2.000000e+00
      vertex   8.111326e+01 9.164723e+00 2.000000e+00
      vertex   2.380138e+01 2.403155e+01 2.000000e+00
    endloop
  endfacet
  facet normal -7.576820e-17 -6.712476e-17 1.000000e+00
    outer loop
      vertex   7.435246e+00 8.028977e+00 2.000000e+00
      vertex   7.117855e+00 8.387238e+00 2.000000e+00
      vertex   3.469447e-15 3.500000e+00 2.000000e+00
    endloop
  endfacet
  facet normal -2.168404e-16 1.644743e-16 1.000000e+00
    outer loop
      vertex   3.469447e-15 3.500000e+00 2.000000e+00
      vertex   4.000000e+00 3.500000e+00 2.000000e+00
      vertex   7.435246e+00 8.028977e+00 2.000000e+00
    endloop
  endfacet
  facet normal 0.000000e+00 0.000000e+00 1.000000e+00
    outer loop
      vertex   4.000000e+00 3.500000e+00 2.000000e+00
      vertex   7.882774e+00 7.859252e+00 2.000000e+00
      vertex   7.435246e+00 8.028977e+00 2.000000e+00
    endloop
  endfacet
  facet normal -2.922484e-16 2.589095e-16 1.000000e+00
    outer loop
      vertex   7.117855e+00 9.316684e+00 2.000000e+00
      vertex   7.435246e+00 9.674945e+00 2.000000e+00
      vertex   8.902769e+00 1.803155e+01 2.000000e+00
    endloop
  endfacet
  facet normal -8.434484e-17 2.223991e-16 1.000000e+00
    outer loop
      vertex   7.435246e+00 9.674945e+00 2.000000e+00
      vertex   7.882774e+00 9.844670e+00 2.000000e+00
      vertex   8.902769e+00 1.803155e+01 2.000000e+00
    endloop
  endfacet
  facet normal 2.534477e-17 2.087330e-16 1.000000e+00
    outer loop
      vertex   7.882774e+00 9.844670e+00 2.000000e+00
      vertex   8.357916e+00 9.786977e+00 2.000000e+00
      vertex   8.902769e+00 1.803155e+01 2.000000e+00
    endloop
  endfacet
  facet normal 0.000000e+00 0.000000e+00 1.000000e+00
    outer loop
      vertex   8.974253e+00 9.091277e+00 2.000000e+00
      vertex   9.003311e+00 8.851961e+00 2.000000e+00
      vertex   8.187818e+01 7.707291e+00 2.000000e+00
    endloop
  endfacet
  facet normal 3.571064e-18 1.881122e-16 1.000000e+00
    outer loop
      vertex   8.187818e+01 7.707291e+00 2.000000e+00
      vertex   2.380138e+01 1.803155e+01 2.000000e+00
      vertex   8.974253e+00 9.091277e+00 2.000000e+00
    endloop
  endfacet
  facet normal 8.887200e-17 4.664362e-17 1.000000e+00
    outer loop
      vertex   2.380138e+01 1.803155e+01 2.000000e+00
      vertex   8.751822e+00 9.515084e+00 2.000000e+00
      vertex   8.974253e+00 9.091277e+00 2.000000e+00
    endloop
  endfacet
  facet normal 6.333929e-17 9.176280e-17 1.000000e+00
    outer loop
      vertex   8.357916e+00 9.786977e+00 2.000000e+00
      vertex   8.751822e+00 9.515084e+00 2.000000e+00
      vertex   2.380138e+01 1.803155e+01 2.000000e+00
    endloop
  endfacet
  facet normal 0.000000e+00 0.000000e+00 1.000000e+00
    outer loop
      vertex   8.187818e+01 7.707291e+00 2.000000e+00
      vertex   9.003311e+00 8.851961e+00 2.000000e+00
      vertex   8.974253e+00 8.612646e+00 2.000000e+00
    endloop
  endfacet
  facet normal -1.300799e-17 -1.047472e-15 1.000000e+00
    outer loop
      vertex   8.974253e+00 8.612646e+00 2.000000e+00
      vertex   8.600000e+01 6.000000e+00 2.000000e+00
      vertex   8.187818e+01 7.707291e+00 2.000000e+00
    endloop
  endfacet
  facet normal 9.540556e-17 -7.857355e-16 1.000000e+00
    outer loop
      vertex   8.600000e+01 6.000000e+00 2.000000e+00
      vertex   8.235332e+01 7.764984e+00 2.000000e+00
      vertex   8.187818e+01 7.707291e+00 2.000000e+00
    endloop
  endfacet
  facet normal 2.796274e-16 -4.051103e-16 1.000000e+00
    outer loop
      vertex   8.600000e+01 6.000000e+00 2.000000e+00
      vertex   8.274723e+01 8.036877e+00 2.000000e+00
      vertex   8.235332e+01 7.764984e+00 2.000000e+00
    endloop
  endfacet
  facet normal 0.000000e+00 0.000000e+00 1.000000e+00
    outer loop
      vertex   8.600000e+01 3.500000e+00 2.000000e+00
      vertex   9.000000e+01 3.500000e+00 2.000000e+00
      vertex   9.000000e+01 6.000000e+00 2.000000e+00
    endloop
  endfacet
  facet normal 0.000000e+00 0.000000e+00 1.000000e+00
    outer loop
      vertex   9.000000e+01 6.000000e+00 2.000000e+00
      vertex   8.600000e+01 6.000000e+00 2.000000e+00
      vertex   8.600000e+01 3.500000e+00 2.000000e+00
    endloop
  endfacet
  facet normal 2.115516e-17 -1.174348e-31 1.000000e+00
    outer loop
      vertex   8.600000e+01 3.500000e+00 2.000000e+00
      vertex   8.600000e+01 6.000000e+00 2.000000e+00
      vertex   4.000000e+00 2.000000e+00 2.000000e+00
    endloop
  endfacet
  facet normal 2.197834e-17 -1.687508e-17 1.000000e+00
    outer loop
      vertex   4.000000e+00 2.000000e+00 2.000000e+00
      vertex   8.600000e+01 6.000000e+00 2.000000e+00
      vertex   8.751822e+00 8.188839e+00 2.000000e+00
    endloop
  endfacet
  facet normal 0.000000e+00 0.000000e+00 1.000000e+00
    outer loop
      vertex   8.751822e+00 8.188839e+00 2.000000e+00
      vertex   4.000000e+00 3.500000e+00 2.000000e+00
      vertex   4.000000e+00 2.000000e+00 2.000000e+00
    endloop
  endfacet
  facet normal 0.000000e+00 0.000000e+00 1.000000e+00
    outer loop
      vertex   4.000000e+00 3.500000e+00 2.000000e+00
      vertex   8.751822e+00 8.188839e+00 2.000000e+00
      vertex   8.357916e+00 7.916945e+00 2.000000e+00
    endloop
  endfacet
  facet normal 0.000000e+00 0.000000e+00 1.000000e+00
    outer loop
      vertex   4.000000e+00 3.500000e+00 2.000000e+00
      vertex   8.357916e+00 7.916945e+00 2.000000e+00
      vertex   7.882774e+00 7.859252e+00 2.000000e+00
    endloop
  endfacet
  facet normal 0.000000e+00 0.000000e+00 1.000000e+00
    outer loop
      vertex   8.143065e+01 9.522984e+00 2.000000e+00
      vertex   8.187818e+01 9.692709e+00 2.000000e+00
      vertex   9.000000e+01 4.922000e+01 2.000000e+00
    endloop
  endfacet
  facet normal -0.000000e+00 0.000000e+00 1.000000e+00
    outer loop
      vertex   8.187818e+01 9.692709e+00 2.000000e+00
      vertex   8.235332e+01 9.635016e+00 2.000000e+00
      vertex   9.000000e+01 4.922000e+01 2.000000e+00
    endloop
  endfacet
  facet normal -0.000000e+00 0.000000e+00 1.000000e+00
    outer loop
      vertex   8.235332e+01 9.635016e+00 2.000000e+00
      vertex   8.274723e+01 9.363123e+00 2.000000e+00
      vertex   9.000000e+01 4.922000e+01 2.000000e+00
    endloop
  endfacet
  facet normal -1.525925e-16 3.761067e-17 1.000000e+00
    outer loop
      vertex   7.003311e+00 8.851961e+00 2.000000e+00
      vertex   7.117855e+00 9.316684e+00 2.000000e+00
      vertex   3.469447e-15 3.500000e+00 2.000000e+00
    endloop
  endfacet
  facet normal -3.417166e-16 2.690412e-16 1.000000e+00
    outer loop
      vertex   8.902769e+00 1.803155e+01 2.000000e+00
      vertex   3.469447e-15 3.500000e+00 2.000000e+00
      vertex   7.117855e+00 9.316684e+00 2.000000e+00
    endloop
  endfacet
  facet normal 1.283918e-16 -1.897117e-17 1.000000e+00
    outer loop
      vertex   0.000000e+00 4.922000e+01 2.000000e+00
      vertex   3.469447e-15 3.500000e+00 2.000000e+00
      vertex   8.902769e+00 1.803155e+01 2.000000e+00
    endloop
  endfacet
  facet normal 1.948521e-16 -3.943503e-31 1.000000e+00
    outer loop
      vertex   8.902769e+00 1.803155e+01 2.000000e+00
      vertex   8.902769e+00 2.403155e+01 2.000000e+00
      vertex   0.000000e+00 4.922000e+01 2.000000e+00
    endloop
  endfacet
  facet normal 0.000000e+00 -6.886980e-17 1.000000e+00
    outer loop
      vertex   9.000000e+01 4.922000e+01 2.000000e+00
      vertex   0.000000e+00 4.922000e+01 2.000000e+00
      vertex   8.902769e+00 2.403155e+01 2.000000e+00
    endloop
  endfacet
  facet normal -9.622645e-32 -6.886980e-17 1.000000e+00
    outer loop
      vertex   8.902769e+00 2.403155e+01 2.000000e+00
      vertex   2.380138e+01 2.403155e+01 2.000000e+00
      vertex   9.000000e+01 4.922000e+01 2.000000e+00
    endloop
  endfacet
  facet normal -2.854985e-17 6.163020e-18 1.000000e+00
    outer loop
      vertex   9.000000e+01 4.922000e+01 2.000000e+00
      vertex   2.380138e+01 2.403155e+01 2.000000e+00
      vertex   8.143065e+01 9.522984e+00 2.000000e+00
    endloop
  endfacet
  facet normal -2.461203e-17 2.180436e-17 1.000000e+00
    outer loop
      vertex   8.111326e+01 9.164723e+00 2.000000e+00
      vertex   8.143065e+01 9.522984e+00 2.000000e+00
      vertex   2.380138e+01 2.403155e+01 2.000000e+00
    endloop
  endfacet
  facet normal -1.397223e-15 -1.000000e+00 -3.847294e-31
    outer loop
      vertex   2.380138e+01 1.803155e+01 2.000000e+00
      vertex   2.380138e+01 1.803155e+01 1.460000e+01
      vertex   8.902769e+00 1.803155e+01 1.460000e+01
    endloop
  endfacet
  facet normal -1.397223e-15 -1.000000e+00 -0.000000e+00
    outer loop
      vertex   8.902769e+00 1.803155e+01 1.460000e+01
      vertex   8.902769e+00 1.803155e+01 2.000000e+00
      vertex   2.380138e+01 1.803155e+01 2.000000e+00
    endloop
  endfacet
  facet normal 1.397223e-15 1.000000e+00 -0.000000e+00
    outer loop
      vertex   8.902769e+00 2.403155e+01 2.000000e+00
      vertex   8.902769e+00 2.403155e+01 6.000000e+00
      vertex   2.380138e+01 2.403155e+01 6.000000e+00
    endloop
  endfacet
  facet normal 1.397223e-15 1.000000e+00 0.000000e+00
    outer loop
      vertex   2.380138e+01 2.403155e+01 6.000000e+00
      vertex   2.380138e+01 2.403155e+01 2.000000e+00
      vertex   8.902769e+00 2.403155e+01 2.000000e+00
    endloop
  endfacet
  facet normal -1.000000e+00 1.734723e-15 0.000000e+00
    outer loop
      vertex   8.902769e+00 2.003155e+01 6.000000e+00
      vertex   8.902769e+00 2.403155e+01 6.000000e+00
      vertex   8.902769e+00 2.403155e+01 2.000000e+00
    endloop
  endfacet
  facet normal -1.000000e+00 2.023844e-15 2.891206e-16
    outer loop
      vertex   8.902769e+00 2.403155e+01 2.000000e+00
      vertex   8.902769e+00 1.803155e+01 2.000000e+00
      vertex   8.902769e+00 2.003155e+01 6.000000e+00
    endloop
  endfacet
  facet normal -1.000000e+00 2.602085e-15 0.000000e+00
    outer loop
      vertex   8.902769e+00 2.003155e+01 1.460000e+01
      vertex   8.902769e+00 2.003155e+01 6.000000e+00
      vertex   8.902769e+00 1.803155e+01 2.000000e+00
    endloop
  endfacet
  facet normal -1.000000e+00 2.602085e-15 0.000000e+00
    outer loop
      vertex   8.902769e+00 1.803155e+01 2.000000e+00
      vertex   8.902769e+00 1.803155e+01 1.460000e+01
      vertex   8.902769e+00 2.003155e+01 1.460000e+01
    endloop
  endfacet
  facet normal 1.000000e+00 -1.734723e-15 0.000000e+00
    outer loop
      vertex   2.380138e+01 2.003155e+01 6.000000e+00
      vertex   2.380138e+01 2.003155e+01 1.460000e+01
      vertex   2.380138e+01 1.803155e+01 1.460000e+01
    endloop
  endfacet
  facet normal 1.000000e+00 -5.507059e-16 2.753529e-16
    outer loop
      vertex   2.380138e+01 1.803155e+01 1.460000e+01
      vertex   2.380138e+01 1.803155e+01 2.000000e+00
      vertex   2.380138e+01 2.003155e+01 6.000000e+00
    endloop
  endfacet
  facet normal 1.000000e+00 -1.734723e-15 8.673617e-16
    outer loop
      vertex   2.380138e+01 2.403155e+01 6.000000e+00
      vertex   2.380138e+01 2.003155e+01 6.000000e+00
      vertex   2.380138e+01 1.803155e+01 2.000000e+00
    endloop
  endfacet
  facet normal 1.000000e+00 -1.156482e-15 3.555348e-31
    outer loop
      vertex   2.380138e+01 1.803155e+01 2.000000e+00
      vertex   2.380138e+01 2.403155e+01 2.000000e+00
      vertex   2.380138e+01 2.403155e+01 6.000000e+00
    endloop
  endfacet
  facet normal -0.000000e+00 0.000000e+00 1.000000e+00
    outer loop
      vertex   8.902769e+00 2.003155e+01 6.000000e+00
      vertex   2.380138e+01 2.003155e+01 6.000000e+00
      vertex   2.380138e+01 2.403155e+01 6.000000e+00
    endloop
  endfacet
  facet normal 0.000000e+00 0.000000e+00 1.000000e+00
    outer loop
      vertex   2.380138e+01 2.403155e+01 6.000000e+00
      vertex   8.902769e+00 2.403155e+01 6.000000e+00
      vertex   8.902769e+00 2.003155e+01 6.000000e+00
    endloop
  endfacet
  facet normal 1.397223e-15 1.000000e+00 -0.000000e+00
    outer loop
      vertex   8.902769e+00 2.003155e+01 6.000000e+00
      vertex   8.902769e+00 2.003155e+01 1.460000e+01
      vertex   2.380138e+01 2.003155e+01 1.460000e+01
    endloop
  endfacet
  facet normal 1.397223e-15 1.000000e+00 0.000000e+00
    outer loop
      vertex   2.380138e+01 2.003155e+01 1.460000e+01
      vertex   2.380138e+01 2.003155e+01 6.000000e+00
      vertex   8.902769e+00 2.003155e+01 6.000000e+00
    endloop
  endfacet
  facet normal 0.000000e+00 -0.000000e+00 1.000000e+00
    outer loop
      vertex   2.380138e+01 1.803155e+01 1.460000e+01
      vertex   2.380138e+01 2.003155e+01 1.460000e+01
      vertex   8.902769e+00 2.003155e+01 1.460000e+01
    endloop
  endfacet
  facet normal 0.000000e+00 0.000000e+00 1.000000e+00
    outer loop
      vertex   8.902769e+00 2.003155e+01 1.460000e+01
      vertex   8.902769e+00 1.803155e+01 1.460000e+01
      vertex   2.380138e+01 1.803155e+01 1.460000e+01
    endloop
  endfacet
endsolid
