solid ascii
  facet normal 0.000000e+00 0.000000e+00 -1.000000e+00
    outer loop
      vertex   -2.500000e+00 0.000000e+00 0.000000e+00
      vertex   -2.309699e+00 9.567086e-01 0.000000e+00
      vertex   0.000000e+00 0.000000e+00 0.000000e+00
    endloop
  endfacet
  facet normal 0.000000e+00 0.000000e+00 -1.000000e+00
    outer loop
      vertex   -9.567086e-01 -2.309699e+00 0.000000e+00
      vertex   -1.767767e+00 -1.767767e+00 0.000000e+00
      vertex   0.000000e+00 0.000000e+00 0.000000e+00
    endloop
  endfacet
  facet normal 0.000000e+00 0.000000e+00 -1.000000e+00
    outer loop
      vertex   -1.767767e+00 -1.767767e+00 0.000000e+00
      vertex   -2.309699e+00 -9.567086e-01 0.000000e+00
      vertex   0.000000e+00 0.000000e+00 0.000000e+00
    endloop
  endfacet
  facet normal 0.000000e+00 0.000000e+00 -1.000000e+00
    outer loop
      vertex   -2.309699e+00 -9.567086e-01 0.000000e+00
      vertex   -2.500000e+00 0.000000e+00 0.000000e+00
      vertex   0.000000e+00 0.000000e+00 0.000000e+00
    endloop
  endfacet
  facet normal -0.000000e+00 0.000000e+00 -1.000000e+00
    outer loop
      vertex   1.767767e+00 -1.767767e+00 0.000000e+00
      vertex   9.567086e-01 -2.309699e+00 0.000000e+00
      vertex   0.000000e+00 0.000000e+00 0.000000e+00
    endloop
  endfacet
  facet normal -0.000000e+00 0.000000e+00 -1.000000e+00
    outer loop
      vertex   9.567086e-01 -2.309699e+00 0.000000e+00
      vertex   4.592425e-16 -2.500000e+00 0.000000e+00
      vertex   0.000000e+00 0.000000e+00 0.000000e+00
    endloop
  endfacet
  facet normal 0.000000e+00 0.000000e+00 -1.000000e+00
    outer loop
      vertex   4.592425e-16 -2.500000e+00 0.000000e+00
      vertex   -9.567086e-01 -2.309699e+00 0.000000e+00
      vertex   0.000000e+00 0.000000e+00 0.000000e+00
    endloop
  endfacet
  facet normal 0.000000e+00 -0.000000e+00 -1.000000e+00
    outer loop
      vertex   2.309699e+00 9.567086e-01 0.000000e+00
      vertex   2.500000e+00 3.061617e-16 0.000000e+00
      vertex   0.000000e+00 0.000000e+00 0.000000e+00
    endloop
  endfacet
  facet normal 0.000000e+00 0.000000e+00 -1.000000e+00
    outer loop
      vertex   2.500000e+00 3.061617e-16 0.000000e+00
      vertex   2.309699e+00 -9.567086e-01 0.000000e+00
      vertex   0.000000e+00 0.000000e+00 0.000000e+00
    endloop
  endfacet
  facet normal -0.000000e+00 0.000000e+00 -1.000000e+00
    outer loop
      vertex   2.309699e+00 -9.567086e-01 0.000000e+00
      vertex   1.767767e+00 -1.767767e+00 0.000000e+00
      vertex   0.000000e+00 0.000000e+00 0.000000e+00
    endloop
  endfacet
  facet normal 0.000000e+00 -0.000000e+00 -1.000000e+00
    outer loop
      vertex   4.020307e-16 2.500000e+00 0.000000e+00
      vertex   9.567086e-01 2.309699e+00 0.000000e+00
      vertex   0.000000e+00 0.000000e+00 0.000000e+00
    endloop
  endfacet
  facet normal 0.000000e+00 -0.000000e+00 -1.000000e+00
    outer loop
      vertex   9.567086e-01 2.309699e+00 0.000000e+00
      vertex   1.767767e+00 1.767767e+00 0.000000e+00
      vertex   0.000000e+00 0.000000e+00 0.000000e+00
    endloop
  endfacet
  facet normal 0.000000e+00 -0.000000e+00 -1.000000e+00
    outer loop
      vertex   1.767767e+00 1.767767e+00 0.000000e+00
      vertex   2.309699e+00 9.567086e-01 0.000000e+00
      vertex   0.000000e+00 0.000000e+00 0.000000e+00
    endloop
  endfacet
  facet normal 0.000000e+00 0.000000e+00 -1.000000e+00
    outer loop
      vertex   0.000000e+00 0.000000e+00 0.000000e+00
      vertex   -2.309699e+00 9.567086e-01 0.000000e+00
      vertex   -1.767767e+00 1.767767e+00 0.000000e+00
    endloop
  endfacet
  facet normal 0.000000e+00 0.000000e+00 -1.000000e+00
    outer loop
      vertex   -1.767767e+00 1.767767e+00 0.000000e+00
      vertex   -9.567086e-01 2.309699e+00 0.000000e+00
      vertex   0.000000e+00 0.000000e+00 0.000000e+00
    endloop
  endfacet
  facet normal 0.000000e+00 0.000000e+00 -1.000000e+00
    outer loop
      vertex   -9.567086e-01 2.309699e+00 0.000000e+00
      vertex   4.020307e-16 2.500000e+00 0.000000e+00
      vertex   0.000000e+00 0.000000e+00 0.000000e+00
    endloop
  endfacet
  facet normal -9.807853e-01 1.950903e-01 0.000000e+00
    outer loop
      vertex   -2.309699e+00 9.567086e-01 2.000000e+00
      vertex   -2.309699e+00 9.567086e-01 0.000000e+00
      vertex   -2.500000e+00 0.000000e+00 0.000000e+00
    endloop
  endfacet
  facet normal -8.314696e-01 5.555702e-01 0.000000e+00
    outer loop
      vertex   -2.309699e+00 9.567086e-01 0.000000e+00
      vertex   -2.309699e+00 9.567086e-01 2.000000e+00
      vertex   -1.767767e+00 1.767767e+00 2.000000e+00
    endloop
  endfacet
  facet normal -8.314696e-01 5.555702e-01 0.000000e+00
    outer loop
      vertex   -1.767767e+00 1.767767e+00 2.000000e+00
      vertex   -1.767767e+00 1.767767e+00 0.000000e+00
      vertex   -2.309699e+00 9.567086e-01 0.000000e+00
    endloop
  endfacet
  facet normal -5.555702e-01 8.314696e-01 0.000000e+00
    outer loop
      vertex   -1.767767e+00 1.767767e+00 0.000000e+00
      vertex   -1.767767e+00 1.767767e+00 2.000000e+00
      vertex   -9.567086e-01 2.309699e+00 2.000000e+00
    endloop
  endfacet
  facet normal -5.555702e-01 8.314696e-01 0.000000e+00
    outer loop
      vertex   -9.567086e-01 2.309699e+00 2.000000e+00
      vertex   -9.567086e-01 2.309699e+00 0.000000e+00
      vertex   -1.767767e+00 1.767767e+00 0.000000e+00
    endloop
  endfacet
  facet normal -1.950903e-01 9.807853e-01 0.000000e+00
    outer loop
      vertex   -9.567086e-01 2.309699e+00 0.000000e+00
      vertex   -9.567086e-01 2.309699e+00 2.000000e+00
      vertex   4.020307e-16 2.500000e+00 2.000000e+00
    endloop
  endfacet
  facet normal -1.950903e-01 9.807853e-01 0.000000e+00
    outer loop
      vertex   4.020307e-16 2.500000e+00 2.000000e+00
      vertex   4.020307e-16 2.500000e+00 0.000000e+00
      vertex   -9.567086e-01 2.309699e+00 0.000000e+00
    endloop
  endfacet
  facet normal 1.950903e-01 9.807853e-01 -0.000000e+00
    outer loop
      vertex   4.020307e-16 2.500000e+00 0.000000e+00
      vertex   4.020307e-16 2.500000e+00 2.000000e+00
      vertex   9.567086e-01 2.309699e+00 2.000000e+00
    endloop
  endfacet
  facet normal 1.950903e-01 9.807853e-01 0.000000e+00
    outer loop
      vertex   9.567086e-01 2.309699e+00 2.000000e+00
      vertex   9.567086e-01 2.309699e+00 0.000000e+00
      vertex   4.020307e-16 2.500000e+00 0.000000e+00
    endloop
  endfacet
  facet normal 5.555702e-01 8.314696e-01 -0.000000e+00
    outer loop
      vertex   9.567086e-01 2.309699e+00 0.000000e+00
      vertex   9.567086e-01 2.309699e+00 2.000000e+00
      vertex   1.767767e+00 1.767767e+00 2.000000e+00
    endloop
  endfacet
  facet normal 5.555702e-01 8.314696e-01 0.000000e+00
    outer loop
      vertex   1.767767e+00 1.767767e+00 2.000000e+00
      vertex   1.767767e+00 1.767767e+00 0.000000e+00
      vertex   9.567086e-01 2.309699e+00 0.000000e+00
    endloop
  endfacet
  facet normal 8.314696e-01 5.555702e-01 -0.000000e+00
    outer loop
      vertex   1.767767e+00 1.767767e+00 0.000000e+00
      vertex   1.767767e+00 1.767767e+00 2.000000e+00
      vertex   2.309699e+00 9.567086e-01 2.000000e+00
    endloop
  endfacet
  facet normal 8.314696e-01 5.555702e-01 0.000000e+00
    outer loop
      vertex   2.309699e+00 9.567086e-01 2.000000e+00
      vertex   2.309699e+00 9.567086e-01 0.000000e+00
      vertex   1.767767e+00 1.767767e+00 0.000000e+00
    endloop
  endfacet
  facet normal 9.807853e-01 1.950903e-01 -0.000000e+00
    outer loop
      vertex   2.309699e+00 9.567086e-01 0.000000e+00
      vertex   2.309699e+00 9.567086e-01 2.000000e+00
      vertex   2.500000e+00 3.061617e-16 2.000000e+00
    endloop
  endfacet
  facet normal 9.807853e-01 1.950903e-01 0.000000e+00
    outer loop
      vertex   2.500000e+00 3.061617e-16 2.000000e+00
      vertex   2.500000e+00 3.061617e-16 0.000000e+00
      vertex   2.309699e+00 9.567086e-01 0.000000e+00
    endloop
  endfacet
  facet normal 9.807853e-01 -1.950903e-01 0.000000e+00
    outer loop
      vertex   2.500000e+00 3.061617e-16 0.000000e+00
      vertex   2.500000e+00 3.061617e-16 2.000000e+00
      vertex   2.309699e+00 -9.567086e-01 2.000000e+00
    endloop
  endfacet
  facet normal 9.807853e-01 -1.950903e-01 0.000000e+00
    outer loop
      vertex   2.309699e+00 -9.567086e-01 2.000000e+00
      vertex   2.309699e+00 -9.567086e-01 0.000000e+00
      vertex   2.500000e+00 3.061617e-16 0.000000e+00
    endloop
  endfacet
  facet normal 8.314696e-01 -5.555702e-01 0.000000e+00
    outer loop
      vertex   2.309699e+00 -9.567086e-01 0.000000e+00
      vertex   2.309699e+00 -9.567086e-01 2.000000e+00
      vertex   1.767767e+00 -1.767767e+00 2.000000e+00
    endloop
  endfacet
  facet normal 8.314696e-01 -5.555702e-01 0.000000e+00
    outer loop
      vertex   1.767767e+00 -1.767767e+00 2.000000e+00
      vertex   1.767767e+00 -1.767767e+00 0.000000e+00
      vertex   2.309699e+00 -9.567086e-01 0.000000e+00
    endloop
  endfacet
  facet normal 5.555702e-01 -8.314696e-01 0.000000e+00
    outer loop
      vertex   1.767767e+00 -1.767767e+00 0.000000e+00
      vertex   1.767767e+00 -1.767767e+00 2.000000e+00
      vertex   9.567086e-01 -2.309699e+00 2.000000e+00
    endloop
  endfacet
  facet normal 5.555702e-01 -8.314696e-01 0.000000e+00
    outer loop
      vertex   9.567086e-01 -2.309699e+00 2.000000e+00
      vertex   9.567086e-01 -2.309699e+00 0.000000e+00
      vertex   1.767767e+00 -1.767767e+00 0.000000e+00
    endloop
  endfacet
  facet normal 1.950903e-01 -9.807853e-01 0.000000e+00
    outer loop
      vertex   9.567086e-01 -2.309699e+00 0.000000e+00
      vertex   9.567086e-01 -2.309699e+00 2.000000e+00
      vertex   4.592425e-16 -2.500000e+00 2.000000e+00
    endloop
  endfacet
  facet normal 1.950903e-01 -9.807853e-01 0.000000e+00
    outer loop
      vertex   4.592425e-16 -2.500000e+00 2.000000e+00
      vertex   4.592425e-16 -2.500000e+00 0.000000e+00
      vertex   9.567086e-01 -2.309699e+00 0.000000e+00
    endloop
  endfacet
  facet normal -1.950903e-01 -9.807853e-01 0.000000e+00
    outer loop
      vertex   4.592425e-16 -2.500000e+00 0.000000e+00
      vertex   4.592425e-16 -2.500000e+00 2.000000e+00
      vertex   -9.567086e-01 -2.309699e+00 2.000000e+00
    endloop
  endfacet
  facet normal -1.950903e-01 -9.807853e-01 -0.000000e+00
    outer loop
      vertex   -9.567086e-01 -2.309699e+00 2.000000e+00
      vertex   -9.567086e-01 -2.309699e+00 0.000000e+00
      vertex   4.592425e-16 -2.500000e+00 0.000000e+00
    endloop
  endfacet
  facet normal -5.555702e-01 -8.314696e-01 0.000000e+00
    outer loop
      vertex   -9.567086e-01 -2.309699e+00 0.000000e+00
      vertex   -9.567086e-01 -2.309699e+00 2.000000e+00
      vertex   -1.767767e+00 -1.767767e+00 2.000000e+00
    endloop
  endfacet
  facet normal -5.555702e-01 -8.314696e-01 -0.000000e+00
    outer loop
      vertex   -1.767767e+00 -1.767767e+00 2.000000e+00
      vertex   -1.767767e+00 -1.767767e+00 0.000000e+00
      vertex   -9.567086e-01 -2.309699e+00 0.000000e+00
    endloop
  endfacet
  facet normal -8.314696e-01 -5.555702e-01 0.000000e+00
    outer loop
      vertex   -1.767767e+00 -1.767767e+00 0.000000e+00
      vertex   -1.767767e+00 -1.767767e+00 2.000000e+00
      vertex   -2.309699e+00 -9.567086e-01 2.000000e+00
    endloop
  endfacet
  facet normal -8.314696e-01 -5.555702e-01 -0.000000e+00
    outer loop
      vertex   -2.309699e+00 -9.567086e-01 2.000000e+00
      vertex   -2.309699e+00 -9.567086e-01 0.000000e+00
      vertex   -1.767767e+00 -1.767767e+00 0.000000e+00
    endloop
  endfacet
  facet normal -9.807853e-01 -1.950903e-01 0.000000e+00
    outer loop
      vertex   -2.309699e+00 -9.567086e-01 0.000000e+00
      vertex   -2.309699e+00 -9.567086e-01 2.000000e+00
      vertex   -2.500000e+00 -6.123234e-16 2.000000e+00
    endloop
  endfacet
  facet normal -9.807853e-01 -1.950903e-01 -5.972918e-17
    outer loop
      vertex   -2.500000e+00 -6.123234e-16 2.000000e+00
      vertex   -2.500000e+00 0.000000e+00 0.000000e+00
      vertex   -2.309699e+00 -9.567086e-01 0.000000e+00
    endloop
  endfacet
  facet normal -9.807853e-01 1.950903e-01 5.972918e-17
    outer loop
      vertex   -2.500000e+00 0.000000e+00 0.000000e+00
      vertex   -2.500000e+00 -6.123234e-16 2.000000e+00
      vertex   -2.309699e+00 9.567086e-01 2.000000e+00
    endloop
  endfacet
  facet normal 0.000000e+00 0.000000e+00 1.000000e+00
    outer loop
      vertex   1.091107e+00 -1.368205e+00 2.000000e+00
      vertex   3.894116e-01 -1.706124e+00 2.000000e+00
      vertex   9.567086e-01 -2.309699e+00 2.000000e+00
    endloop
  endfacet
  facet normal 0.000000e+00 0.000000e+00 1.000000e+00
    outer loop
      vertex   9.567086e-01 -2.309699e+00 2.000000e+00
      vertex   1.767767e+00 -1.767767e+00 2.000000e+00
      vertex   1.091107e+00 -1.368205e+00 2.000000e+00
    endloop
  endfacet
  facet normal 0.000000e+00 0.000000e+00 1.000000e+00
    outer loop
      vertex   1.576696e+00 -7.592965e-01 2.000000e+00
      vertex   1.091107e+00 -1.368205e+00 2.000000e+00
      vertex   1.767767e+00 -1.767767e+00 2.000000e+00
    endloop
  endfacet
  facet normal 0.000000e+00 -0.000000e+00 1.000000e+00
    outer loop
      vertex   1.767767e+00 -1.767767e+00 2.000000e+00
      vertex   2.309699e+00 -9.567086e-01 2.000000e+00
      vertex   1.576696e+00 -7.592965e-01 2.000000e+00
    endloop
  endfacet
  facet normal 0.000000e+00 0.000000e+00 1.000000e+00
    outer loop
      vertex   1.750000e+00 2.143132e-16 2.000000e+00
      vertex   1.576696e+00 -7.592965e-01 2.000000e+00
      vertex   2.309699e+00 -9.567086e-01 2.000000e+00
    endloop
  endfacet
  facet normal 0.000000e+00 -0.000000e+00 1.000000e+00
    outer loop
      vertex   2.309699e+00 -9.567086e-01 2.000000e+00
      vertex   2.500000e+00 3.061617e-16 2.000000e+00
      vertex   1.750000e+00 2.143132e-16 2.000000e+00
    endloop
  endfacet
  facet normal 0.000000e+00 0.000000e+00 1.000000e+00
    outer loop
      vertex   1.576696e+00 7.592965e-01 2.000000e+00
      vertex   1.750000e+00 2.143132e-16 2.000000e+00
      vertex   2.500000e+00 3.061617e-16 2.000000e+00
    endloop
  endfacet
  facet normal 0.000000e+00 0.000000e+00 1.000000e+00
    outer loop
      vertex   2.500000e+00 3.061617e-16 2.000000e+00
      vertex   2.309699e+00 9.567086e-01 2.000000e+00
      vertex   1.576696e+00 7.592965e-01 2.000000e+00
    endloop
  endfacet
  facet normal 0.000000e+00 0.000000e+00 1.000000e+00
    outer loop
      vertex   1.091107e+00 1.368205e+00 2.000000e+00
      vertex   1.576696e+00 7.592965e-01 2.000000e+00
      vertex   2.309699e+00 9.567086e-01 2.000000e+00
    endloop
  endfacet
  facet normal 0.000000e+00 0.000000e+00 1.000000e+00
    outer loop
      vertex   2.309699e+00 9.567086e-01 2.000000e+00
      vertex   1.767767e+00 1.767767e+00 2.000000e+00
      vertex   1.091107e+00 1.368205e+00 2.000000e+00
    endloop
  endfacet
  facet normal -0.000000e+00 0.000000e+00 1.000000e+00
    outer loop
      vertex   3.894116e-01 1.706124e+00 2.000000e+00
      vertex   1.091107e+00 1.368205e+00 2.000000e+00
      vertex   1.767767e+00 1.767767e+00 2.000000e+00
    endloop
  endfacet
  facet normal 0.000000e+00 0.000000e+00 1.000000e+00
    outer loop
      vertex   1.767767e+00 1.767767e+00 2.000000e+00
      vertex   9.567086e-01 2.309699e+00 2.000000e+00
      vertex   3.894116e-01 1.706124e+00 2.000000e+00
    endloop
  endfacet
  facet normal 0.000000e+00 -0.000000e+00 1.000000e+00
    outer loop
      vertex   3.894116e-01 1.706124e+00 2.000000e+00
      vertex   9.567086e-01 2.309699e+00 2.000000e+00
      vertex   4.020307e-16 2.500000e+00 2.000000e+00
    endloop
  endfacet
  facet normal 0.000000e+00 0.000000e+00 1.000000e+00
    outer loop
      vertex   -3.894116e-01 1.706124e+00 2.000000e+00
      vertex   3.894116e-01 1.706124e+00 2.000000e+00
      vertex   4.020307e-16 2.500000e+00 2.000000e+00
    endloop
  endfacet
  facet normal 0.000000e+00 0.000000e+00 1.000000e+00
    outer loop
      vertex   4.020307e-16 2.500000e+00 2.000000e+00
      vertex   -9.567086e-01 2.309699e+00 2.000000e+00
      vertex   -3.894116e-01 1.706124e+00 2.000000e+00
    endloop
  endfacet
  facet normal 0.000000e+00 0.000000e+00 1.000000e+00
    outer loop
      vertex   -1.091107e+00 1.368205e+00 2.000000e+00
      vertex   -3.894116e-01 1.706124e+00 2.000000e+00
      vertex   -9.567086e-01 2.309699e+00 2.000000e+00
    endloop
  endfacet
  facet normal 0.000000e+00 0.000000e+00 1.000000e+00
    outer loop
      vertex   -9.567086e-01 2.309699e+00 2.000000e+00
      vertex   -1.767767e+00 1.767767e+00 2.000000e+00
      vertex   -1.091107e+00 1.368205e+00 2.000000e+00
    endloop
  endfacet
  facet normal 0.000000e+00 -0.000000e+00 1.000000e+00
    outer loop
      vertex   -1.576696e+00 7.592965e-01 2.000000e+00
      vertex   -1.091107e+00 1.368205e+00 2.000000e+00
      vertex   -1.767767e+00 1.767767e+00 2.000000e+00
    endloop
  endfacet
  facet normal 0.000000e+00 0.000000e+00 1.000000e+00
    outer loop
      vertex   -1.767767e+00 1.767767e+00 2.000000e+00
      vertex   -2.309699e+00 9.567086e-01 2.000000e+00
      vertex   -1.576696e+00 7.592965e-01 2.000000e+00
    endloop
  endfacet
  facet normal 0.000000e+00 -0.000000e+00 1.000000e+00
    outer loop
      vertex   -1.750000e+00 0.000000e+00 2.000000e+00
      vertex   -1.576696e+00 7.592965e-01 2.000000e+00
      vertex   -2.309699e+00 9.567086e-01 2.000000e+00
    endloop
  endfacet
  facet normal 0.000000e+00 0.000000e+00 1.000000e+00
    outer loop
      vertex   -2.309699e+00 9.567086e-01 2.000000e+00
      vertex   -2.500000e+00 -6.123234e-16 2.000000e+00
      vertex   -1.750000e+00 0.000000e+00 2.000000e+00
    endloop
  endfacet
  facet normal 0.000000e+00 0.000000e+00 1.000000e+00
    outer loop
      vertex   -1.576696e+00 -7.592965e-01 2.000000e+00
      vertex   -1.750000e+00 0.000000e+00 2.000000e+00
      vertex   -2.500000e+00 -6.123234e-16 2.000000e+00
    endloop
  endfacet
  facet normal 0.000000e+00 0.000000e+00 1.000000e+00
    outer loop
      vertex   -2.500000e+00 -6.123234e-16 2.000000e+00
      vertex   -2.309699e+00 -9.567086e-01 2.000000e+00
      vertex   -1.576696e+00 -7.592965e-01 2.000000e+00
    endloop
  endfacet
  facet normal 0.000000e+00 0.000000e+00 1.000000e+00
    outer loop
      vertex   -1.091107e+00 -1.368205e+00 2.000000e+00
      vertex   -1.576696e+00 -7.592965e-01 2.000000e+00
      vertex   -2.309699e+00 -9.567086e-01 2.000000e+00
    endloop
  endfacet
  facet normal 0.000000e+00 0.000000e+00 1.000000e+00
    outer loop
      vertex   -2.309699e+00 -9.567086e-01 2.000000e+00
      vertex   -1.767767e+00 -1.767767e+00 2.000000e+00
      vertex   -1.091107e+00 -1.368205e+00 2.000000e+00
    endloop
  endfacet
  facet normal 0.000000e+00 0.000000e+00 1.000000e+00
    outer loop
      vertex   -3.894116e-01 -1.706124e+00 2.000000e+00
      vertex   -1.091107e+00 -1.368205e+00 2.000000e+00
      vertex   -1.767767e+00 -1.767767e+00 2.000000e+00
    endloop
  endfacet
  facet normal -0.000000e+00 0.000000e+00 1.000000e+00
    outer loop
      vertex   -1.767767e+00 -1.767767e+00 2.000000e+00
      vertex   -9.567086e-01 -2.309699e+00 2.000000e+00
      vertex   -3.894116e-01 -1.706124e+00 2.000000e+00
    endloop
  endfacet
  facet normal 0.000000e+00 0.000000e+00 1.000000e+00
    outer loop
      vertex   3.894116e-01 -1.706124e+00 2.000000e+00
      vertex   -3.894116e-01 -1.706124e+00 2.000000e+00
      vertex   -9.567086e-01 -2.309699e+00 2.000000e+00
    endloop
  endfacet
  facet normal -0.000000e+00 0.000000e+00 1.000000e+00
    outer loop
      vertex   -9.567086e-01 -2.309699e+00 2.000000e+00
      vertex   4.592425e-16 -2.500000e+00 2.000000e+00
      vertex   3.894116e-01 -1.706124e+00 2.000000e+00
    endloop
  endfacet
  facet normal 0.000000e+00 0.000000e+00 1.000000e+00
    outer loop
      vertex   4.592425e-16 -2.500000e+00 2.000000e+00
      vertex   9.567086e-01 -2.309699e+00 2.000000e+00
      vertex   3.894116e-01 -1.706124e+00 2.000000e+00
    endloop
  endfacet
  facet normal -9.749279e-01 2.225209e-01 0.000000e+00
    outer loop
      vertex   -1.576696e+00 7.592965e-01 1.100000e+01
      vertex   -1.576696e+00 7.592965e-01 2.000000e+00
      vertex   -1.750000e+00 0.000000e+00 2.000000e+00
    endloop
  endfacet
  facet normal -7.818315e-01 6.234898e-01 0.000000e+00
    outer loop
      vertex   -1.576696e+00 7.592965e-01 2.000000e+00
      vertex   -1.576696e+00 7.592965e-01 1.100000e+01
      vertex   -1.091107e+00 1.368205e+00 1.100000e+01
    endloop
  endfacet
  facet normal -7.818315e-01 6.234898e-01 0.000000e+00
    outer loop
      vertex   -1.091107e+00 1.368205e+00 1.100000e+01
      vertex   -1.091107e+00 1.368205e+00 2.000000e+00
      vertex   -1.576696e+00 7.592965e-01 2.000000e+00
    endloop
  endfacet
  facet normal -4.338837e-01 9.009689e-01 0.000000e+00
    outer loop
      vertex   -1.091107e+00 1.368205e+00 2.000000e+00
      vertex   -1.091107e+00 1.368205e+00 1.100000e+01
      vertex   -3.894116e-01 1.706124e+00 1.100000e+01
    endloop
  endfacet
  facet normal -4.338837e-01 9.009689e-01 0.000000e+00
    outer loop
      vertex   -3.894116e-01 1.706124e+00 1.100000e+01
      vertex   -3.894116e-01 1.706124e+00 2.000000e+00
      vertex   -1.091107e+00 1.368205e+00 2.000000e+00
    endloop
  endfacet
  facet normal 0.000000e+00 1.000000e+00 0.000000e+00
    outer loop
      vertex   -3.894116e-01 1.706124e+00 2.000000e+00
      vertex   -3.894116e-01 1.706124e+00 1.100000e+01
      vertex   3.894116e-01 1.706124e+00 1.100000e+01
    endloop
  endfacet
  facet normal 0.000000e+00 1.000000e+00 0.000000e+00
    outer loop
      vertex   3.894116e-01 1.706124e+00 1.100000e+01
      vertex   3.894116e-01 1.706124e+00 2.000000e+00
      vertex   -3.894116e-01 1.706124e+00 2.000000e+00
    endloop
  endfacet
  facet normal 4.338837e-01 9.009689e-01 -0.000000e+00
    outer loop
      vertex   3.894116e-01 1.706124e+00 2.000000e+00
      vertex   3.894116e-01 1.706124e+00 1.100000e+01
      vertex   1.091107e+00 1.368205e+00 1.100000e+01
    endloop
  endfacet
  facet normal 4.338837e-01 9.009689e-01 0.000000e+00
    outer loop
      vertex   1.091107e+00 1.368205e+00 1.100000e+01
      vertex   1.091107e+00 1.368205e+00 2.000000e+00
      vertex   3.894116e-01 1.706124e+00 2.000000e+00
    endloop
  endfacet
  facet normal 7.818315e-01 6.234898e-01 -0.000000e+00
    outer loop
      vertex   1.091107e+00 1.368205e+00 2.000000e+00
      vertex   1.091107e+00 1.368205e+00 1.100000e+01
      vertex   1.576696e+00 7.592965e-01 1.100000e+01
    endloop
  endfacet
  facet normal 7.818315e-01 6.234898e-01 0.000000e+00
    outer loop
      vertex   1.576696e+00 7.592965e-01 1.100000e+01
      vertex   1.576696e+00 7.592965e-01 2.000000e+00
      vertex   1.091107e+00 1.368205e+00 2.000000e+00
    endloop
  endfacet
  facet normal 9.749279e-01 2.225209e-01 -0.000000e+00
    outer loop
      vertex   1.576696e+00 7.592965e-01 2.000000e+00
      vertex   1.576696e+00 7.592965e-01 1.100000e+01
      vertex   1.750000e+00 2.143132e-16 1.100000e+01
    endloop
  endfacet
  facet normal 9.749279e-01 2.225209e-01 0.000000e+00
    outer loop
      vertex   1.750000e+00 2.143132e-16 1.100000e+01
      vertex   1.750000e+00 2.143132e-16 2.000000e+00
      vertex   1.576696e+00 7.592965e-01 2.000000e+00
    endloop
  endfacet
  facet normal 9.749279e-01 -2.225209e-01 0.000000e+00
    outer loop
      vertex   1.750000e+00 2.143132e-16 2.000000e+00
      vertex   1.750000e+00 2.143132e-16 1.100000e+01
      vertex   1.576696e+00 -7.592965e-01 1.100000e+01
    endloop
  endfacet
  facet normal 9.749279e-01 -2.225209e-01 0.000000e+00
    outer loop
      vertex   1.576696e+00 -7.592965e-01 1.100000e+01
      vertex   1.576696e+00 -7.592965e-01 2.000000e+00
      vertex   1.750000e+00 2.143132e-16 2.000000e+00
    endloop
  endfacet
  facet normal 7.818315e-01 -6.234898e-01 0.000000e+00
    outer loop
      vertex   1.576696e+00 -7.592965e-01 2.000000e+00
      vertex   1.576696e+00 -7.592965e-01 1.100000e+01
      vertex   1.091107e+00 -1.368205e+00 1.100000e+01
    endloop
  endfacet
  facet normal 7.818315e-01 -6.234898e-01 0.000000e+00
    outer loop
      vertex   1.091107e+00 -1.368205e+00 1.100000e+01
      vertex   1.091107e+00 -1.368205e+00 2.000000e+00
      vertex   1.576696e+00 -7.592965e-01 2.000000e+00
    endloop
  endfacet
  facet normal 4.338837e-01 -9.009689e-01 0.000000e+00
    outer loop
      vertex   1.091107e+00 -1.368205e+00 2.000000e+00
      vertex   1.091107e+00 -1.368205e+00 1.100000e+01
      vertex   3.894116e-01 -1.706124e+00 1.100000e+01
    endloop
  endfacet
  facet normal 4.338837e-01 -9.009689e-01 0.000000e+00
    outer loop
      vertex   3.894116e-01 -1.706124e+00 1.100000e+01
      vertex   3.894116e-01 -1.706124e+00 2.000000e+00
      vertex   1.091107e+00 -1.368205e+00 2.000000e+00
    endloop
  endfacet
  facet normal 0.000000e+00 -1.000000e+00 0.000000e+00
    outer loop
      vertex   3.894116e-01 -1.706124e+00 2.000000e+00
      vertex   3.894116e-01 -1.706124e+00 1.100000e+01
      vertex   -3.894116e-01 -1.706124e+00 1.100000e+01
    endloop
  endfacet
  facet normal 0.000000e+00 -1.000000e+00 0.000000e+00
    outer loop
      vertex   -3.894116e-01 -1.706124e+00 1.100000e+01
      vertex   -3.894116e-01 -1.706124e+00 2.000000e+00
      vertex   3.894116e-01 -1.706124e+00 2.000000e+00
    endloop
  endfacet
  facet normal -4.338837e-01 -9.009689e-01 0.000000e+00
    outer loop
      vertex   -3.894116e-01 -1.706124e+00 2.000000e+00
      vertex   -3.894116e-01 -1.706124e+00 1.100000e+01
      vertex   -1.091107e+00 -1.368205e+00 1.100000e+01
    endloop
  endfacet
  facet normal -4.338837e-01 -9.009689e-01 -0.000000e+00
    outer loop
      vertex   -1.091107e+00 -1.368205e+00 1.100000e+01
      vertex   -1.091107e+00 -1.368205e+00 2.000000e+00
      vertex   -3.894116e-01 -1.706124e+00 2.000000e+00
    endloop
  endfacet
  facet normal -7.818315e-01 -6.234898e-01 0.000000e+00
    outer loop
      vertex   -1.091107e+00 -1.368205e+00 2.000000e+00
      vertex   -1.091107e+00 -1.368205e+00 1.100000e+01
      vertex   -1.576696e+00 -7.592965e-01 1.100000e+01
    endloop
  endfacet
  facet normal -7.818315e-01 -6.234898e-01 -0.000000e+00
    outer loop
      vertex   -1.576696e+00 -7.592965e-01 1.100000e+01
      vertex   -1.576696e+00 -7.592965e-01 2.000000e+00
      vertex   -1.091107e+00 -1.368205e+00 2.000000e+00
    endloop
  endfacet
  facet normal -9.749279e-01 -2.225209e-01 0.000000e+00
    outer loop
      vertex   -1.576696e+00 -7.592965e-01 2.000000e+00
      vertex   -1.576696e+00 -7.592965e-01 1.100000e+01
      vertex   -1.750000e+00 -4.286264e-16 1.100000e+01
    endloop
  endfacet
  facet normal -9.749279e-01 -2.225209e-01 -1.059759e-17
    outer loop
      vertex   -1.750000e+00 -4.286264e-16 1.100000e+01
      vertex   -1.750000e+00 0.000000e+00 2.000000e+00
      vertex   -1.576696e+00 -7.592965e-01 2.000000e+00
    endloop
  endfacet
  facet normal -9.749279e-01 2.225209e-01 1.059759e-17
    outer loop
      vertex   -1.750000e+00 0.000000e+00 2.000000e+00
      vertex   -1.750000e+00 -4.286264e-16 1.100000e+01
      vertex   -1.576696e+00 7.592965e-01 1.100000e+01
    endloop
  endfacet
  facet normal -0.000000e+00 0.000000e+00 1.000000e+00
    outer loop
      vertex   -1.750000e+00 -4.286264e-16 1.100000e+01
      vertex   -1.576696e+00 -7.592965e-01 1.100000e+01
      vertex   0.000000e+00 0.000000e+00 1.100000e+01
    endloop
  endfacet
  facet normal 0.000000e+00 0.000000e+00 1.000000e+00
    outer loop
      vertex   -1.576696e+00 7.592965e-01 1.100000e+01
      vertex   -1.750000e+00 -4.286264e-16 1.100000e+01
      vertex   0.000000e+00 0.000000e+00 1.100000e+01
    endloop
  endfacet
  facet normal 0.000000e+00 0.000000e+00 1.000000e+00
    outer loop
      vertex   3.894116e-01 1.706124e+00 1.100000e+01
      vertex   -3.894116e-01 1.706124e+00 1.100000e+01
      vertex   0.000000e+00 0.000000e+00 1.100000e+01
    endloop
  endfacet
  facet normal 0.000000e+00 0.000000e+00 1.000000e+00
    outer loop
      vertex   -3.894116e-01 1.706124e+00 1.100000e+01
      vertex   -1.091107e+00 1.368205e+00 1.100000e+01
      vertex   0.000000e+00 0.000000e+00 1.100000e+01
    endloop
  endfacet
  facet normal 0.000000e+00 0.000000e+00 1.000000e+00
    outer loop
      vertex   -1.091107e+00 1.368205e+00 1.100000e+01
      vertex   -1.576696e+00 7.592965e-01 1.100000e+01
      vertex   0.000000e+00 0.000000e+00 1.100000e+01
    endloop
  endfacet
  facet normal 0.000000e+00 0.000000e+00 1.000000e+00
    outer loop
      vertex   1.750000e+00 2.143132e-16 1.100000e+01
      vertex   1.576696e+00 7.592965e-01 1.100000e+01
      vertex   0.000000e+00 0.000000e+00 1.100000e+01
    endloop
  endfacet
  facet normal 0.000000e+00 0.000000e+00 1.000000e+00
    outer loop
      vertex   1.576696e+00 7.592965e-01 1.100000e+01
      vertex   1.091107e+00 1.368205e+00 1.100000e+01
      vertex   0.000000e+00 0.000000e+00 1.100000e+01
    endloop
  endfacet
  facet normal 0.000000e+00 0.000000e+00 1.000000e+00
    outer loop
      vertex   1.091107e+00 1.368205e+00 1.100000e+01
      vertex   3.894116e-01 1.706124e+00 1.100000e+01
      vertex   0.000000e+00 0.000000e+00 1.100000e+01
    endloop
  endfacet
  facet normal 0.000000e+00 -0.000000e+00 1.000000e+00
    outer loop
      vertex   3.894116e-01 -1.706124e+00 1.100000e+01
      vertex   1.091107e+00 -1.368205e+00 1.100000e+01
      vertex   0.000000e+00 0.000000e+00 1.100000e+01
    endloop
  endfacet
  facet normal 0.000000e+00 -0.000000e+00 1.000000e+00
    outer loop
      vertex   1.091107e+00 -1.368205e+00 1.100000e+01
      vertex   1.576696e+00 -7.592965e-01 1.100000e+01
      vertex   0.000000e+00 0.000000e+00 1.100000e+01
    endloop
  endfacet
  facet normal 0.000000e+00 -0.000000e+00 1.000000e+00
    outer loop
      vertex   1.576696e+00 -7.592965e-01 1.100000e+01
      vertex   1.750000e+00 2.143132e-16 1.100000e+01
      vertex   0.000000e+00 0.000000e+00 1.100000e+01
    endloop
  endfacet
  facet normal 0.000000e+00 0.000000e+00 1.000000e+00
    outer loop
      vertex   0.000000e+00 0.000000e+00 1.100000e+01
      vertex   -1.576696e+00 -7.592965e-01 1.100000e+01
      vertex   -1.091107e+00 -1.368205e+00 1.100000e+01
    endloop
  endfacet
  facet normal -0.000000e+00 0.000000e+00 1.000000e+00
    outer loop
      vertex   -1.091107e+00 -1.368205e+00 1.100000e+01
      vertex   -3.894116e-01 -1.706124e+00 1.100000e+01
      vertex   0.000000e+00 0.000000e+00 1.100000e+01
    endloop
  endfacet
  facet normal 0.000000e+00 0.000000e+00 1.000000e+00
    outer loop
      vertex   -3.894116e-01 -1.706124e+00 1.100000e+01
      vertex   3.894116e-01 -1.706124e+00 1.100000e+01
      vertex   0.000000e+00 0.000000e+00 1.100000e+01
    endloop
  endfacet
endsolid
